<svg width="27" height="28" viewBox="0 0 27 28" fill="none" xmlns="http://www.w3.org/2000/svg">
<path d="M7 12.25H12.25V28H7V12.25ZM8.75 26.25H10.5V14H8.75V26.25ZM14 15.75H19.25V28H14V15.75ZM15.75 26.25H17.5V17.5H15.75V26.25ZM0 19.25H5.25V28H0V19.25ZM1.75 26.25H3.5V21H1.75V26.25ZM21 8.75H26.25V28H21V8.75ZM22.75 26.25H24.5V10.5H22.75V26.25ZM18.9902 8.49023C19.1634 8.86393 19.25 9.24219 19.25 9.625C19.25 9.98958 19.1816 10.3314 19.0449 10.6504C18.9082 10.9694 18.7214 11.2474 18.4844 11.4844C18.2474 11.7214 17.9694 11.9082 17.6504 12.0449C17.3314 12.1816 16.9896 12.25 16.625 12.25C16.2604 12.25 15.9186 12.1816 15.5996 12.0449C15.2806 11.9082 15.0026 11.7214 14.7656 11.4844C14.5286 11.2474 14.3418 10.9694 14.2051 10.6504C14.0684 10.3314 14 9.98958 14 9.625V9.46094C14 9.40625 14.0046 9.35156 14.0137 9.29688L11.4434 8.01172C11.2064 8.2487 10.9284 8.43099 10.6094 8.55859C10.2904 8.6862 9.96224 8.75 9.625 8.75C9.24219 8.75 8.86393 8.66341 8.49023 8.49023L4.99023 11.9902C5.16341 12.3639 5.25 12.7422 5.25 13.125C5.25 13.4896 5.18164 13.8314 5.04492 14.1504C4.9082 14.4694 4.72135 14.7474 4.48438 14.9844C4.2474 15.2214 3.9694 15.4082 3.65039 15.5449C3.33138 15.6816 2.98958 15.75 2.625 15.75C2.26042 15.75 1.91862 15.6816 1.59961 15.5449C1.2806 15.4082 1.0026 15.2214 0.765625 14.9844C0.528646 14.7474 0.341797 14.4694 0.205078 14.1504C0.0683594 13.8314 0 13.4896 0 13.125C0 12.7604 0.0683594 12.4186 0.205078 12.0996C0.341797 11.7806 0.528646 11.5026 0.765625 11.2656C1.0026 11.0286 1.2806 10.8418 1.59961 10.7051C1.91862 10.5684 2.26042 10.5 2.625 10.5C3.00781 10.5 3.38607 10.5866 3.75977 10.7598L7.25977 7.25977C7.08659 6.88607 7 6.50781 7 6.125C7 5.76042 7.06836 5.41862 7.20508 5.09961C7.3418 4.7806 7.52865 4.5026 7.76562 4.26562C8.0026 4.02865 8.2806 3.8418 8.59961 3.70508C8.91862 3.56836 9.26042 3.5 9.625 3.5C9.98958 3.5 10.3314 3.56836 10.6504 3.70508C10.9694 3.8418 11.2474 4.02865 11.4844 4.26562C11.7214 4.5026 11.9082 4.7806 12.0449 5.09961C12.1816 5.41862 12.25 5.76042 12.25 6.125V6.28906C12.25 6.34375 12.2454 6.39844 12.2363 6.45312L14.8066 7.73828C15.0436 7.5013 15.3216 7.31901 15.6406 7.19141C15.9596 7.0638 16.2878 7 16.625 7C17.0078 7 17.3861 7.08659 17.7598 7.25977L21.2598 3.75977C21.0866 3.38607 21 3.00781 21 2.625C21 2.26042 21.0684 1.91862 21.2051 1.59961C21.3418 1.2806 21.5286 1.0026 21.7656 0.765625C22.0026 0.528646 22.2806 0.341797 22.5996 0.205078C22.9186 0.0683594 23.2604 0 23.625 0C23.9896 0 24.3314 0.0683594 24.6504 0.205078C24.9694 0.341797 25.2474 0.528646 25.4844 0.765625C25.7214 1.0026 25.9082 1.2806 26.0449 1.59961C26.1816 1.91862 26.25 2.26042 26.25 2.625C26.25 2.98958 26.1816 3.33138 26.0449 3.65039C25.9082 3.9694 25.7214 4.2474 25.4844 4.48438C25.2474 4.72135 24.9694 4.9082 24.6504 5.04492C24.3314 5.18164 23.9896 5.25 23.625 5.25C23.2422 5.25 22.8639 5.16341 22.4902 4.99023L18.9902 8.49023ZM2.625 14C2.86198 14 3.06706 13.9134 3.24023 13.7402C3.41341 13.5671 3.5 13.362 3.5 13.125C3.5 12.888 3.41341 12.6829 3.24023 12.5098C3.06706 12.3366 2.86198 12.25 2.625 12.25C2.38802 12.25 2.18294 12.3366 2.00977 12.5098C1.83659 12.6829 1.75 12.888 1.75 13.125C1.75 13.362 1.83659 13.5671 2.00977 13.7402C2.18294 13.9134 2.38802 14 2.625 14ZM23.625 1.75C23.388 1.75 23.1829 1.83659 23.0098 2.00977C22.8366 2.18294 22.75 2.38802 22.75 2.625C22.75 2.86198 22.8366 3.06706 23.0098 3.24023C23.1829 3.41341 23.388 3.5 23.625 3.5C23.862 3.5 24.0671 3.41341 24.2402 3.24023C24.4134 3.06706 24.5 2.86198 24.5 2.625C24.5 2.38802 24.4134 2.18294 24.2402 2.00977C24.0671 1.83659 23.862 1.75 23.625 1.75ZM9.625 7C9.86198 7 10.0671 6.91341 10.2402 6.74023C10.4134 6.56706 10.5 6.36198 10.5 6.125C10.5 5.88802 10.4134 5.68294 10.2402 5.50977C10.0671 5.33659 9.86198 5.25 9.625 5.25C9.38802 5.25 9.18294 5.33659 9.00977 5.50977C8.83659 5.68294 8.75 5.88802 8.75 6.125C8.75 6.36198 8.83659 6.56706 9.00977 6.74023C9.18294 6.91341 9.38802 7 9.625 7ZM16.625 10.5C16.862 10.5 17.0671 10.4134 17.2402 10.2402C17.4134 10.0671 17.5 9.86198 17.5 9.625C17.5 9.38802 17.4134 9.18294 17.2402 9.00977C17.0671 8.83659 16.862 8.75 16.625 8.75C16.388 8.75 16.1829 8.83659 16.0098 9.00977C15.8366 9.18294 15.75 9.38802 15.75 9.625C15.75 9.86198 15.8366 10.0671 16.0098 10.2402C16.1829 10.4134 16.388 10.5 16.625 10.5Z" fill="white"/>
</svg>
