<svg width="223" height="82" viewBox="0 0 223 82" fill="none" xmlns="http://www.w3.org/2000/svg">
<mask id="path-1-inside-1_1066_6975" fill="white">
<path d="M0 0H223V81.5H0V0Z"/>
</mask>
<path d="M223 81.5V80.5H0V81.5V82.5H223V81.5Z" fill="#E5E5E5" mask="url(#path-1-inside-1_1066_6975)"/>
<g clip-path="url(#clip0_1066_6975)">
<mask id="mask0_1066_6975" style="mask-type:luminance" maskUnits="userSpaceOnUse" x="22" y="23" width="149" height="35">
<path d="M170.001 23.2666H22.6633V57.6916H170.001V23.2666Z" fill="white"/>
</mask>
<g mask="url(#mask0_1066_6975)">
<path d="M28.7914 37.5774H31.371C33.2959 37.5774 34.291 38.3631 34.291 39.8951C34.291 41.6367 32.903 42.239 31.4889 42.239H28.7914V37.5774ZM23.6846 33.8193V54.3251H28.7914V45.9971H30.258C33.0209 45.9971 33.8327 49.9385 36.0326 54.3251H41.65C38.7693 48.3148 38.1277 45.7876 36.0326 44.74C38.3765 43.6532 39.555 41.9771 39.555 39.7249C39.555 36.6608 37.0539 33.8324 32.8507 33.8324H23.6846V33.8193Z" fill="#ED1C2E"/>
</g>
<mask id="mask1_1066_6975" style="mask-type:luminance" maskUnits="userSpaceOnUse" x="22" y="23" width="149" height="35">
<path d="M170.001 23.2666H22.6633V57.6916H170.001V23.2666Z" fill="white"/>
</mask>
<g mask="url(#mask1_1066_6975)">
<path d="M47.5162 33.8193H42.4094V54.3251H47.5162V33.8193Z" fill="#ED1C2E"/>
</g>
<mask id="mask2_1066_6975" style="mask-type:luminance" maskUnits="userSpaceOnUse" x="22" y="23" width="149" height="35">
<path d="M170.001 23.2666H22.6633V57.6916H170.001V23.2666Z" fill="white"/>
</mask>
<g mask="url(#mask2_1066_6975)">
<path d="M69.0172 52.5448C66.1626 54.0114 64.002 54.5875 60.9641 54.5875C53.0028 54.5875 49.0352 49.4152 49.0352 44.1251C49.0352 38.6517 53.5135 33.5449 61.357 33.5449C64.2115 33.5449 66.7649 34.1473 68.7815 35.3519V39.9219C66.5292 38.6648 64.2377 37.8137 61.7236 37.8137C57.3632 37.8137 54.2991 40.3933 54.2991 44.0335C54.2991 47.6999 57.337 50.3188 61.6058 50.3188C64.277 50.3188 66.084 49.4807 69.0303 48.0665V52.5448H69.0172Z" fill="#ED1C2E"/>
</g>
<mask id="mask3_1066_6975" style="mask-type:luminance" maskUnits="userSpaceOnUse" x="22" y="23" width="149" height="35">
<path d="M170.001 23.2666H22.6633V57.6916H170.001V23.2666Z" fill="white"/>
</mask>
<g mask="url(#mask3_1066_6975)">
<path d="M91.1988 54.3251H86.0921V46.0233H75.8654V54.3251H70.7586V33.8193H75.8654V42.0557H86.0921V33.8193H91.1988V54.3251Z" fill="#ED1C2E"/>
</g>
<mask id="mask4_1066_6975" style="mask-type:luminance" maskUnits="userSpaceOnUse" x="22" y="23" width="149" height="35">
<path d="M170.001 23.2666H22.6633V57.6916H170.001V23.2666Z" fill="white"/>
</mask>
<g mask="url(#mask4_1066_6975)">
<path d="M113.538 39.7118C110.919 38.4547 108.392 37.8131 105.878 37.8131C100.313 37.8131 98.3616 41.2438 98.3616 44.2817C98.3616 47.9219 101.216 50.3182 105.459 50.3182C106.716 50.3182 107.357 50.2003 108.85 49.598V47.1886H105.878V43.4306H113.97V51.8109C112.438 53.4084 108.654 54.5738 105.341 54.5738C98.1914 54.5738 93.1108 50.2134 93.1108 44.0853C93.1108 37.8393 98.1652 33.5312 105.459 33.5312C108.523 33.5312 111.495 34.2252 113.551 35.2204V39.7118H113.538Z" fill="#ED1C2E"/>
</g>
<mask id="mask5_1066_6975" style="mask-type:luminance" maskUnits="userSpaceOnUse" x="22" y="23" width="149" height="35">
<path d="M170.001 23.2666H22.6633V57.6916H170.001V23.2666Z" fill="white"/>
</mask>
<g mask="url(#mask5_1066_6975)">
<path d="M121.172 37.5774H123.751C125.676 37.5774 126.671 38.3631 126.671 39.8951C126.671 41.6367 125.283 42.239 123.882 42.239H121.172V37.5774ZM116.065 33.8193V54.3251H121.172V45.9971H122.638C125.401 45.9971 126.213 49.9385 128.413 54.3251H134.03C131.15 48.3148 130.508 45.7876 128.413 44.74C130.757 43.6532 131.935 41.9771 131.935 39.7249C131.935 36.6608 129.434 33.8324 125.231 33.8324H116.065V33.8193Z" fill="#ED1C2E"/>
</g>
<mask id="mask6_1066_6975" style="mask-type:luminance" maskUnits="userSpaceOnUse" x="22" y="23" width="149" height="35">
<path d="M170.001 23.2666H22.6633V57.6916H170.001V23.2666Z" fill="white"/>
</mask>
<g mask="url(#mask6_1066_6975)">
<path d="M151.498 44.0714C151.498 47.8295 148.919 50.3174 145.03 50.3174C141.128 50.3174 138.535 47.8164 138.535 44.0714C138.535 40.3133 141.114 37.8254 145.03 37.8254C148.919 37.8123 151.498 40.3133 151.498 44.0714ZM156.762 44.0714C156.762 39.1479 152.768 33.5566 145.043 33.5566C137.317 33.5566 133.284 39.1217 133.284 44.0714C133.284 49.296 137.527 54.5861 145.043 54.5861C152.402 54.5861 156.762 49.3353 156.762 44.0714Z" fill="#ED1C2E"/>
</g>
<mask id="mask7_1066_6975" style="mask-type:luminance" maskUnits="userSpaceOnUse" x="22" y="23" width="149" height="35">
<path d="M170.001 23.2666H22.6633V57.6916H170.001V23.2666Z" fill="white"/>
</mask>
<g mask="url(#mask7_1066_6975)">
<path d="M146.666 34.5915C146.666 34.5915 147.923 33.138 149.416 32.3262L146.666 34.5915Z" fill="#0064B0"/>
</g>
<mask id="mask8_1066_6975" style="mask-type:luminance" maskUnits="userSpaceOnUse" x="22" y="23" width="149" height="35">
<path d="M170.001 23.2666H22.6633V57.6916H170.001V23.2666Z" fill="white"/>
</mask>
<g mask="url(#mask8_1066_6975)">
<path d="M146.666 34.5915C146.666 34.5915 147.923 33.138 149.416 32.3262" stroke="white" stroke-width="0.0781731"/>
</g>
<mask id="mask9_1066_6975" style="mask-type:luminance" maskUnits="userSpaceOnUse" x="22" y="23" width="149" height="35">
<path d="M170.001 23.2666H22.6633V57.6916H170.001V23.2666Z" fill="white"/>
</mask>
<g mask="url(#mask9_1066_6975)">
<path d="M146.732 34.5919C146.732 34.5919 148.801 32.1301 151.263 31.4492L146.732 34.5919Z" fill="#0064B0"/>
</g>
<mask id="mask10_1066_6975" style="mask-type:luminance" maskUnits="userSpaceOnUse" x="22" y="23" width="149" height="35">
<path d="M170.001 23.2666H22.6633V57.6916H170.001V23.2666Z" fill="white"/>
</mask>
<g mask="url(#mask10_1066_6975)">
<path d="M146.732 34.5919C146.732 34.5919 148.801 32.1301 151.263 31.4492" stroke="white" stroke-width="0.0781731"/>
</g>
<mask id="mask11_1066_6975" style="mask-type:luminance" maskUnits="userSpaceOnUse" x="22" y="23" width="149" height="35">
<path d="M170.001 23.2666H22.6633V57.6916H170.001V23.2666Z" fill="white"/>
</mask>
<g mask="url(#mask11_1066_6975)">
<path d="M146.666 34.6578C146.666 34.6578 146.693 32.3924 148.513 29.9045C148.513 29.9045 149.704 28.032 152.69 27.0892C152.69 27.0892 154.497 26.4738 156.016 26.2774C156.016 26.2774 159.171 25.8191 160.573 25.112C160.573 25.112 162.183 24.3525 162.589 23.7764C162.589 23.7764 161.371 26.5393 159.106 28.2415C159.106 28.2415 157.744 30.1009 155.099 31.0175C155.099 31.0175 150.464 33.584 149.469 33.7412C148.473 33.9114 149.39 33.7412 149.39 33.7412C149.39 33.7412 148.225 34.8149 146.666 34.6578Z" fill="#0064B0"/>
</g>
<mask id="mask12_1066_6975" style="mask-type:luminance" maskUnits="userSpaceOnUse" x="22" y="23" width="149" height="35">
<path d="M170.001 23.2666H22.6633V57.6916H170.001V23.2666Z" fill="white"/>
</mask>
<g mask="url(#mask12_1066_6975)">
<path d="M146.666 34.6578C146.666 34.6578 146.693 32.3924 148.513 29.9045C148.513 29.9045 149.704 28.032 152.69 27.0892C152.69 27.0892 154.497 26.4738 156.016 26.2774C156.016 26.2774 159.171 25.8191 160.573 25.112C160.573 25.112 162.183 24.3525 162.589 23.7764C162.589 23.7764 161.371 26.5393 159.106 28.2415C159.106 28.2415 157.744 30.1009 155.099 31.0175C155.099 31.0175 150.464 33.584 149.469 33.7412C148.473 33.9114 149.39 33.7412 149.39 33.7412C149.39 33.7412 148.225 34.8149 146.666 34.6578Z" stroke="white" stroke-width="0.104231"/>
</g>
<mask id="mask13_1066_6975" style="mask-type:luminance" maskUnits="userSpaceOnUse" x="22" y="23" width="149" height="35">
<path d="M170.001 23.2666H22.6633V57.6916H170.001V23.2666Z" fill="white"/>
</mask>
<g mask="url(#mask13_1066_6975)">
<path d="M136.348 27.7434C136.348 27.7434 137.422 28.8696 139.425 32.0122C139.425 32.0122 142.843 37.5642 144.427 39.6724C144.427 39.6724 145.278 37.7999 146.117 36.7916C146.117 36.7916 146.824 35.6917 148.041 35.6C148.041 35.6 150.608 35.3905 151.865 35.2072C151.865 35.2072 155.322 34.8537 157.338 32.9812C157.338 32.9812 159.866 30.9123 160.52 26.9971C160.52 26.9971 158.936 28.7648 156.946 29.5505C156.946 29.5505 154.877 30.3623 153.253 30.8468C153.253 30.8468 151.053 31.4884 149.731 32.1693C149.731 32.1693 147.518 33.1252 145.75 35.731C145.75 35.731 144.807 37.0142 144.336 37.9308C144.336 37.9308 143.694 36.9095 142.647 35.1417C142.647 35.1417 141.507 33.2693 140.669 31.7765C140.669 31.7765 139.569 29.8254 140.198 29.1838C140.185 29.1838 137.841 27.9922 136.348 27.7434Z" fill="#009D57"/>
</g>
<mask id="mask14_1066_6975" style="mask-type:luminance" maskUnits="userSpaceOnUse" x="22" y="23" width="149" height="35">
<path d="M170.001 23.2666H22.6633V57.6916H170.001V23.2666Z" fill="white"/>
</mask>
<g mask="url(#mask14_1066_6975)">
<path d="M136.348 27.7434C136.348 27.7434 137.422 28.8696 139.425 32.0122C139.425 32.0122 142.843 37.5642 144.427 39.6724C144.427 39.6724 145.278 37.7999 146.117 36.7916C146.117 36.7916 146.824 35.6917 148.041 35.6C148.041 35.6 150.608 35.3905 151.865 35.2072C151.865 35.2072 155.322 34.8537 157.338 32.9812C157.338 32.9812 159.866 30.9123 160.52 26.9971C160.52 26.9971 158.936 28.7648 156.946 29.5505C156.946 29.5505 154.877 30.3623 153.253 30.8468C153.253 30.8468 151.053 31.4884 149.731 32.1693C149.731 32.1693 147.518 33.1252 145.75 35.731C145.75 35.731 144.807 37.0142 144.336 37.9308C144.336 37.9308 143.694 36.9095 142.647 35.1417C142.647 35.1417 141.507 33.2693 140.669 31.7765C140.669 31.7765 139.569 29.8254 140.198 29.1838C140.185 29.1838 137.841 27.9922 136.348 27.7434Z" stroke="white" stroke-width="0.104231"/>
</g>
<path d="M26.3817 68.7949H24.2342C24.0378 68.7949 23.9854 68.7687 23.9854 68.5592V59.6027C23.9854 59.3932 24.0509 59.3408 24.2997 59.3408H26.0412C27.7959 59.3408 29.1315 59.9301 29.1315 61.6323C29.1315 62.6537 28.5291 63.531 27.403 63.7536V63.7667C28.7648 63.7929 29.8517 64.6702 29.8517 66.0975C29.8648 68.2188 28.2934 68.7949 26.3817 68.7949ZM25.9103 60.1003H24.9544V63.4786H26.015C26.9709 63.4786 28.1756 63.2429 28.1756 61.6585C28.1756 60.336 27.1019 60.1003 25.9103 60.1003ZM26.2638 64.225H24.9544V68.0616H26.2638C27.7697 68.0616 28.8565 67.6426 28.8565 66.1368C28.8696 64.644 27.678 64.225 26.2638 64.225Z" fill="#6E7C7C"/>
<path d="M34.2644 62.0772C34.3561 62.0903 34.3823 62.1558 34.3692 62.2344L34.3037 62.6927C34.2906 62.7712 34.2382 62.8105 34.1597 62.7974C34.0156 62.7712 33.8716 62.745 33.7145 62.745C33.2169 62.745 32.6669 63.1117 32.3003 63.6616V68.5589C32.3003 68.7291 32.2348 68.8077 32.0777 68.8077H31.6325C31.4753 68.8077 31.4099 68.7291 31.4099 68.5589V62.4308C31.4099 62.2605 31.4753 62.182 31.6325 62.182H32.0646C32.2217 62.182 32.2872 62.2605 32.2872 62.4308L32.3003 62.9153C32.5752 62.4962 33.1514 62.051 33.8454 62.051C33.9632 62.0379 34.1335 62.051 34.2644 62.0772Z" fill="#6E7C7C"/>
<path d="M36.0584 61.1743C35.7442 61.1743 35.4954 60.9517 35.4954 60.6375C35.4954 60.3232 35.7442 60.1006 36.0584 60.1006C36.3727 60.1006 36.6346 60.3232 36.6346 60.6375C36.6346 60.9517 36.3858 61.1743 36.0584 61.1743ZM36.5036 68.5464C36.5036 68.7167 36.4382 68.7952 36.281 68.7952H35.8358C35.6787 68.7952 35.6132 68.7167 35.6132 68.5464V62.4183C35.6132 62.2481 35.6787 62.1695 35.8358 62.1695H36.281C36.4382 62.1695 36.5036 62.2481 36.5036 62.4183V68.5464Z" fill="#6E7C7C"/>
<path d="M43.9019 68.546C43.9019 68.7162 43.8364 68.7948 43.6793 68.7948H43.2341C43.077 68.7948 43.0115 68.7162 43.0115 68.546V64.6308C43.0115 63.5308 42.7496 62.719 41.4795 62.719C40.7855 62.719 39.9343 63.1118 39.4106 63.5963V68.546C39.4106 68.7162 39.3451 68.7948 39.188 68.7948H38.7427C38.5856 68.7948 38.5201 68.7162 38.5201 68.546V62.4178C38.5201 62.2476 38.5856 62.169 38.7427 62.169H39.1749C39.332 62.169 39.3975 62.2476 39.3975 62.4178L39.4106 62.8892C40.0522 62.3262 40.9295 62.0381 41.7152 62.0381C43.3258 62.0381 43.9019 63.0202 43.9019 64.5129V68.546Z" fill="#6E7C7C"/>
<path d="M50.2657 71.1644C49.7943 71.5573 49.0872 71.8191 48.1706 71.8191C47.5683 71.8191 46.7826 71.5965 46.2458 71.3347C46.1017 71.2692 46.0756 71.1906 46.1279 71.0859L46.272 70.7323C46.3113 70.6276 46.4291 70.5752 46.5339 70.6407C47.0707 70.8895 47.6207 71.0859 48.1837 71.0859C48.8516 71.0859 49.3753 70.968 49.742 70.5752C50.1086 70.1955 50.305 69.5538 50.305 68.5979V67.9301C49.8336 68.4932 48.9694 68.8075 48.2361 68.8075C46.2458 68.8075 45.4208 67.2492 45.4208 65.4684C45.4208 63.6221 46.4553 62.0508 48.4194 62.0508C49.1265 62.0508 49.8729 62.3258 50.3181 62.8888L50.3312 62.4043C50.3312 62.221 50.4229 62.1817 50.58 62.1817H50.999C51.1562 62.1817 51.2085 62.2603 51.2085 62.4305V68.5063C51.1823 69.711 50.9205 70.6014 50.2657 71.1644ZM50.2919 63.8447C49.9777 63.2162 49.2051 62.7186 48.4456 62.7186C47.0576 62.7186 46.3113 63.8316 46.3113 65.4029C46.3113 66.6731 46.7826 68.0873 48.3016 68.0873C49.0349 68.0873 49.8991 67.6813 50.2919 67.0921V63.8447Z" fill="#6E7C7C"/>
<path d="M61.3959 62.3923L58.6985 69.6204C58.0961 71.231 57.4545 71.8203 56.0665 71.8203C55.8963 71.8203 55.6999 71.7941 55.5165 71.7679C55.438 71.7548 55.3725 71.7155 55.3725 71.6108C55.3725 71.5977 55.3725 71.5846 55.3725 71.5715L55.438 71.1263C55.4511 71.0084 55.4903 70.9691 55.5951 70.9691C55.6082 70.9691 55.6213 70.9691 55.6344 70.9691C55.7784 70.9822 55.9879 71.0084 56.1451 71.0084C56.8391 71.0084 57.3497 70.7072 57.6509 69.9478L58.083 68.9002L55.6344 62.34C55.6082 62.2614 55.6213 62.1436 55.7391 62.1436H56.3939C56.5117 62.1436 56.5903 62.209 56.6165 62.3007L58.5675 67.8003L60.4924 62.3007C60.5317 62.1959 60.5709 62.1436 60.715 62.1436H61.2518C61.3566 62.1436 61.4221 62.1697 61.4221 62.2483C61.4221 62.3138 61.409 62.3531 61.3959 62.3923Z" fill="#6E7C7C"/>
<path d="M65.0623 68.9257C62.9934 68.9257 62.0768 67.4199 62.0768 65.4688C62.0768 63.557 63.1506 62.0381 65.1409 62.0381C67.2098 62.0381 68.1526 63.4916 68.1526 65.4688C68.1657 67.3937 67.0658 68.9257 65.0623 68.9257ZM65.154 62.7059C63.5041 62.7059 62.9934 64.1594 62.9934 65.4426C62.9934 66.7913 63.4648 68.2579 65.0754 68.2579C66.673 68.2579 67.2491 66.8699 67.2491 65.495C67.2491 64.1332 66.7253 62.7059 65.154 62.7059Z" fill="#6E7C7C"/>
<path d="M74.8961 68.5467C74.8961 68.7169 74.8306 68.7955 74.6735 68.7955H74.2414C74.0843 68.7955 74.0188 68.7169 74.0188 68.5467L74.0057 68.0622C73.3641 68.6252 72.6177 68.9133 71.832 68.9133C71.138 68.9133 70.6274 68.7038 70.2738 68.3634C69.8286 67.9182 69.6584 67.2634 69.6584 66.4123V62.4054C69.6584 62.2352 69.7239 62.1566 69.881 62.1566H70.3262C70.4833 62.1566 70.5488 62.2352 70.5488 62.4054V66.2814C70.5488 66.9623 70.6536 67.4598 70.9547 67.7872C71.1642 68.0229 71.544 68.18 72.0677 68.18C72.7356 68.18 73.5605 67.7217 74.0188 67.2765V62.3923C74.0188 62.2221 74.0843 62.1436 74.2414 62.1436H74.6866C74.8437 62.1436 74.9092 62.2221 74.9092 62.3923V68.5467H74.8961Z" fill="#6E7C7C"/>
<path d="M79.5707 62.0772C79.6624 62.0903 79.6886 62.1558 79.6755 62.2344L79.61 62.6927C79.5969 62.7712 79.5446 62.8105 79.466 62.7974C79.322 62.7712 79.1779 62.745 79.0208 62.745C78.5232 62.745 77.9732 63.1117 77.6066 63.6616V68.5589C77.6066 68.7291 77.5411 68.8077 77.384 68.8077H76.9388C76.7817 68.8077 76.7162 68.7291 76.7162 68.5589V62.4308C76.7162 62.2605 76.7817 62.182 76.9388 62.182H77.3709C77.528 62.182 77.5935 62.2605 77.5935 62.4308L77.6066 62.9153C77.8816 62.4962 78.4577 62.051 79.1517 62.051C79.2696 62.0379 79.4398 62.051 79.5707 62.0772Z" fill="#6E7C7C"/>
<path d="M88.344 71.1644C87.8726 71.5573 87.1655 71.8191 86.2489 71.8191C85.6466 71.8191 84.8609 71.5965 84.324 71.3347C84.18 71.2692 84.1538 71.1906 84.2062 71.0859L84.3502 70.7323C84.3895 70.6276 84.5073 70.5752 84.6121 70.6407C85.149 70.8895 85.6989 71.0859 86.262 71.0859C86.9298 71.0859 87.4536 70.968 87.8202 70.5752C88.1869 70.1955 88.3833 69.5538 88.3833 68.5979V67.9301C87.9119 68.4932 87.0476 68.8075 86.3144 68.8075C84.324 68.8075 83.4991 67.2492 83.4991 65.4684C83.4991 63.6221 84.5335 62.0508 86.4977 62.0508C87.2048 62.0508 87.9512 62.3258 88.3964 62.8888L88.4095 62.4043C88.4095 62.221 88.5011 62.1817 88.6583 62.1817H89.0773C89.2344 62.1817 89.2868 62.2603 89.2868 62.4305V68.5063C89.2606 69.711 88.9987 70.6014 88.344 71.1644ZM88.3833 63.8447C88.069 63.2162 87.2964 62.7186 86.537 62.7186C85.149 62.7186 84.4026 63.8316 84.4026 65.4029C84.4026 66.6731 84.874 68.0873 86.3929 68.0873C87.1262 68.0873 87.9904 67.6813 88.3833 67.0921V63.8447Z" fill="#6E7C7C"/>
<path d="M96.9732 68.6638C96.9732 68.7686 96.9339 68.8079 96.803 68.8079H96.2792C95.7423 68.8079 95.5066 68.3496 95.5066 67.8127V67.6294C95.2316 68.2972 94.2888 68.9257 93.3722 68.9257C91.4867 68.9257 90.6748 67.302 90.6748 65.5997C90.6748 63.3475 91.9842 62.0381 93.5948 62.0381C94.2627 62.0381 95.0352 62.3131 95.4935 62.9023L95.5066 62.3916C95.5066 62.2214 95.5983 62.169 95.7554 62.169H96.1744C96.3316 62.169 96.3839 62.2476 96.3839 62.4178V67.2496C96.3839 67.6294 96.3839 67.8913 96.4363 68.0091C96.4887 68.1269 96.5934 68.1793 96.7244 68.1793H96.816C96.9208 68.1793 96.9732 68.2055 96.9732 68.3365V68.6638ZM95.4935 63.8844C95.14 63.138 94.3936 62.7321 93.6603 62.7321C92.4687 62.7321 91.6045 63.7927 91.6045 65.5474C91.6045 67.2889 92.4687 68.1924 93.4508 68.1924C94.4591 68.1924 95.2185 67.3675 95.4935 66.5294V63.8844Z" fill="#6E7C7C"/>
<path d="M101.098 62.0772C101.19 62.0903 101.229 62.1558 101.203 62.2344L101.137 62.6927C101.124 62.7712 101.072 62.8105 100.993 62.7974C100.849 62.7712 100.705 62.745 100.548 62.745C100.05 62.745 99.5005 63.1117 99.1338 63.6616V68.5589C99.1338 68.7291 99.0683 68.8077 98.9112 68.8077H98.466C98.3089 68.8077 98.2434 68.7291 98.2434 68.5589V62.4308C98.2434 62.2605 98.3089 62.182 98.466 62.182H98.8981C99.0553 62.182 99.1207 62.2605 99.1207 62.4308L99.1338 62.9153C99.4088 62.4962 99.985 62.051 100.679 62.051C100.797 62.0379 100.967 62.051 101.098 62.0772Z" fill="#6E7C7C"/>
<path d="M107.566 68.7942H107.161C106.964 68.7942 106.899 68.7418 106.899 68.5454L106.886 67.9693C106.401 68.5454 105.589 68.912 104.751 68.912C102.761 68.912 101.949 67.2753 101.949 65.4944C101.949 63.3993 103.206 62.0244 104.961 62.0244C105.615 62.0244 106.427 62.3256 106.846 62.8625V59.3663C106.846 59.1961 106.872 59.1306 107.03 59.1175L107.58 59.052C107.684 59.0389 107.737 59.1306 107.737 59.2746V68.5585C107.737 68.7025 107.671 68.7942 107.566 68.7942ZM106.846 63.8445C106.545 63.2291 105.799 62.7184 105.039 62.7184C103.73 62.7184 102.866 63.7398 102.866 65.4682C102.866 67.1312 103.638 68.2311 104.895 68.2311C105.628 68.2311 106.453 67.7598 106.846 67.1836V63.8445Z" fill="#6E7C7C"/>
<path d="M114.52 65.5075H110.133C110.133 66.961 110.866 68.1787 112.451 68.1787C113.04 68.1787 113.76 68.0347 114.179 67.8645C114.284 67.8121 114.389 67.8252 114.415 67.9561L114.48 68.2704C114.507 68.3883 114.493 68.4799 114.362 68.5323C113.813 68.7942 112.948 68.912 112.372 68.912C110.264 68.912 109.216 67.4978 109.216 65.4551C109.216 63.5434 110.395 62.0244 112.32 62.0244C113.957 62.0244 114.886 63.2553 114.886 64.8659V65.1278C114.912 65.442 114.86 65.5075 114.52 65.5075ZM112.307 62.7053C111.01 62.7053 110.29 63.7529 110.159 64.8921H113.996C114.009 64.8004 114.009 64.7088 114.009 64.6171C114.022 63.5695 113.472 62.7053 112.307 62.7053Z" fill="#6E7C7C"/>
<path d="M121.695 68.546C121.695 68.7162 121.63 68.7948 121.473 68.7948H121.027C120.87 68.7948 120.805 68.7162 120.805 68.546V64.6308C120.805 63.5308 120.543 62.719 119.273 62.719C118.579 62.719 117.728 63.1118 117.204 63.5963V68.546C117.204 68.7162 117.138 68.7948 116.981 68.7948H116.536C116.379 68.7948 116.313 68.7162 116.313 68.546V62.4178C116.313 62.2476 116.379 62.169 116.536 62.169H116.968C117.125 62.169 117.191 62.2476 117.191 62.4178L117.204 62.8892C117.846 62.3262 118.723 62.0381 119.508 62.0381C121.119 62.0381 121.695 63.0202 121.695 64.5129V68.546Z" fill="#6E7C7C"/>
<path d="M129.892 68.1654L129.958 68.5059C129.984 68.6106 129.958 68.663 129.814 68.7154C129.552 68.807 129.094 68.9249 128.675 68.9249C128.138 68.9249 127.562 68.7678 127.247 68.4535C126.854 68.0607 126.828 67.4976 126.828 66.7381V62.8229H126.016C125.899 62.8229 125.859 62.7967 125.859 62.692V62.3253C125.859 62.2075 125.886 62.1944 125.977 62.1944H126.815V60.5838C126.815 60.4136 126.841 60.3612 126.999 60.335L127.483 60.2695H127.535C127.64 60.2695 127.706 60.3481 127.706 60.4921V62.1944H129.421C129.526 62.1944 129.578 62.2206 129.578 62.3515V62.7051C129.578 62.8098 129.539 62.836 129.408 62.836H127.745V66.8953C127.745 67.3798 127.784 67.7595 128.02 67.9952C128.19 68.1654 128.452 68.2571 128.832 68.2571C129.146 68.2571 129.5 68.1785 129.683 68.0999C129.801 68.0476 129.879 68.0738 129.892 68.1654Z" fill="#6E7C7C"/>
<path d="M133.729 68.9257C131.66 68.9257 130.743 67.4199 130.743 65.4688C130.743 63.557 131.817 62.0381 133.807 62.0381C135.876 62.0381 136.819 63.4916 136.819 65.4688C136.819 67.3937 135.732 68.9257 133.729 68.9257ZM133.807 62.7059C132.158 62.7059 131.647 64.1594 131.647 65.4426C131.647 66.7913 132.118 68.2579 133.729 68.2579C135.326 68.2579 135.903 66.8699 135.903 65.495C135.916 64.1332 135.379 62.7059 133.807 62.7059Z" fill="#6E7C7C"/>
<path d="M142.24 68.5461C142.24 68.7163 142.175 68.7949 142.018 68.7949H141.572C141.415 68.7949 141.35 68.7163 141.35 68.5461V59.367C141.35 59.1968 141.376 59.1444 141.533 59.1182C142.031 59.0527 142.057 59.0527 142.07 59.0527C142.175 59.0527 142.24 59.1313 142.24 59.2753V68.5461Z" fill="#6E7C7C"/>
<path d="M144.689 61.1743C144.375 61.1743 144.126 60.9517 144.126 60.6375C144.126 60.3232 144.375 60.1006 144.689 60.1006C145.003 60.1006 145.265 60.3232 145.265 60.6375C145.265 60.9517 145.003 61.1743 144.689 61.1743ZM145.121 68.5464C145.121 68.7167 145.056 68.7952 144.899 68.7952H144.453C144.296 68.7952 144.231 68.7167 144.231 68.5464V62.4183C144.231 62.2481 144.296 62.1695 144.453 62.1695H144.899C145.056 62.1695 145.121 62.2481 145.121 62.4183V68.5464Z" fill="#6E7C7C"/>
<path d="M150.712 59.1437C150.869 59.2092 150.882 59.2484 150.856 59.3663L150.765 59.7329C150.725 59.8377 150.66 59.8246 150.555 59.7853C150.346 59.7067 149.979 59.6151 149.652 59.6151C148.643 59.6151 148.342 60.2436 148.342 61.5007V62.1554H150.136C150.254 62.1554 150.306 62.1816 150.306 62.2863V62.6399C150.306 62.7577 150.267 62.797 150.149 62.797H148.342V68.5323C148.342 68.7025 148.277 68.7811 148.12 68.7811H147.674C147.517 68.7811 147.452 68.7025 147.452 68.5323V62.797H146.614C146.522 62.797 146.483 62.7839 146.483 62.6661V62.2994C146.483 62.1947 146.509 62.1685 146.64 62.1685H147.452V61.9852C147.452 61.4483 147.465 61.1209 147.491 60.8983C147.609 59.6806 148.355 58.9473 149.573 58.9473C149.966 58.9473 150.398 59.0389 150.712 59.1437Z" fill="#6E7C7C"/>
<path d="M155.95 65.5075H151.563C151.563 66.961 152.297 68.1787 153.881 68.1787C154.47 68.1787 155.191 68.0347 155.61 67.8645C155.714 67.8121 155.819 67.8252 155.845 67.9561L155.911 68.2704C155.937 68.3883 155.924 68.4799 155.793 68.5323C155.243 68.7942 154.379 68.912 153.803 68.912C151.694 68.912 150.647 67.4978 150.647 65.4551C150.647 63.5434 151.825 62.0244 153.75 62.0244C155.387 62.0244 156.317 63.2553 156.317 64.8659V65.1278C156.33 65.442 156.29 65.5075 155.95 65.5075ZM153.737 62.7053C152.441 62.7053 151.721 63.7529 151.59 64.8921H155.426C155.439 64.8004 155.439 64.7088 155.439 64.6171C155.452 63.5695 154.889 62.7053 153.737 62.7053Z" fill="#6E7C7C"/>
</g>
<defs>
<clipPath id="clip0_1066_6975">
<rect width="143.88" height="54.7736" fill="white" transform="translate(21 21)"/>
</clipPath>
</defs>
</svg>
