<svg width="8" height="11" viewBox="0 0 8 11" fill="none" xmlns="http://www.w3.org/2000/svg">
<path d="M5.5 1.83398H1.5C0.947715 1.83398 0.5 2.2817 0.5 2.83398V9.50065C0.5 10.0529 0.947715 10.5007 1.5 10.5007H5.5C6.05228 10.5007 6.5 10.0529 6.5 9.50065V2.83398C6.5 2.2817 6.05228 1.83398 5.5 1.83398Z" stroke="#005CE8"/>
<path d="M1.5 1.5C1.5 1.23478 1.60536 0.980429 1.79289 0.792893C1.98043 0.605357 2.23478 0.5 2.5 0.5H6.5C6.76522 0.5 7.01957 0.605357 7.20711 0.792893C7.39464 0.980429 7.5 1.23478 7.5 1.5V8.16667C7.5 8.43188 7.39464 8.68624 7.20711 8.87377C7.01957 9.06131 6.76522 9.16667 6.5 9.16667" stroke="#005CE8"/>
</svg>
