<?xml version="1.0" encoding="UTF-8"?>
<svg version="1.1" xmlns="http://www.w3.org/2000/svg" width="400" height="400">
<path d="M0 0 C132 0 264 0 400 0 C400 132 400 264 400 400 C268 400 136 400 0 400 C0 268 0 136 0 0 Z " fill="#FEFEFE" transform="translate(0,0)"/>
<path d="M0 0 C0.99 0.495 0.99 0.495 2 1 C-7.46704504 17.60004902 -18.59357015 30.94356709 -35 41 C-28.3913615 37.82338391 -23.2893358 33.82617723 -17.96875 28.79296875 C-16 27 -16 27 -15 27 C-17.11242855 45.98729385 -28.13262635 64.75930685 -42.5078125 77.1640625 C-44.93898716 78.93858548 -47.39227698 80.49798325 -50 82 C-50.88945312 82.51949219 -51.77890625 83.03898437 -52.6953125 83.57421875 C-74.15486516 95.18108851 -99.20595087 95.91280271 -123 98 C-121.0811236 98 -119.16633732 97.74251685 -117.2578125 97.5625 C-116.27296875 97.47226563 -115.288125 97.38203125 -114.2734375 97.2890625 C-112.21321208 97.09991029 -110.15329712 96.90733761 -108.09375 96.7109375 C-87.91822919 94.886278 -87.91822919 94.886278 -79.89453125 101.40625 C-78.46173828 102.69015625 -78.46173828 102.69015625 -77 104 C-76.19828369 104.71542969 -76.19828369 104.71542969 -75.38037109 105.4453125 C-67.25950991 112.80432699 -61.21552554 120.30662871 -56 130 C-55.59394531 130.72832031 -55.18789063 131.45664063 -54.76953125 132.20703125 C-44.65674286 151.23147225 -42.76966102 174.39364916 -49 195 C-54.06449683 209.25101766 -61.54127257 221.06670554 -72 232 C-72.62519531 232.69996094 -73.25039062 233.39992188 -73.89453125 234.12109375 C-89.91585294 251.42412117 -117.07659869 259.97486724 -140.19750977 261.10766602 C-150.29553281 261.3743981 -160.08405419 261.09136312 -170 259 C-171.23878906 258.75507813 -172.47757812 258.51015625 -173.75390625 258.2578125 C-198.61828945 252.9615117 -219.86291116 238.51813326 -233.9609375 217.37109375 C-238.75446755 209.44615805 -242.50604463 200.92653537 -245 192 C-245.34804687 190.85144531 -245.69609375 189.70289063 -246.0546875 188.51953125 C-251.34197888 166.9837949 -245.87857641 144.68277253 -235 126 C-224.06477384 108.82526245 -207.85911741 93.30516255 -188 87 C-184.9375 86.75 -184.9375 86.75 -183 87 C-184.32376846 84.28139841 -185.74927079 81.67687466 -187.3203125 79.09375 C-187.76890625 78.35616455 -188.2175 77.6185791 -188.6796875 76.85864258 C-195.74534759 65.32801047 -203.07384547 54.10484861 -211.14453125 43.24926758 C-213.87913125 39.56742367 -216.48839055 35.83783314 -219 32 C-214.05591709 32.63918829 -209.74499152 34.03515951 -205.125 35.8125 C-204.42117187 36.07949707 -203.71734375 36.34649414 -202.9921875 36.62158203 C-198.16823937 38.47857873 -193.54932264 40.53578357 -189 43 C-189.13921875 43.91265625 -189.13921875 43.91265625 -189.28125 44.84375 C-190.01908929 53.80322707 -186.45234746 60.21136061 -182.23583984 67.77392578 C-180.98842666 70.02084665 -179.78207575 72.28606664 -178.58203125 74.55859375 C-172.55765913 85.8551607 -165.94611438 96.76352448 -159.13085938 107.59521484 C-158.46505859 108.65949707 -157.79925781 109.7237793 -157.11328125 110.8203125 C-156.51298096 111.77180176 -155.91268066 112.72329102 -155.29418945 113.70361328 C-154 116 -154 116 -154 118 C-151.33264727 115.51047079 -149.44253657 113.36591866 -148 110 C-149.32 111.98 -150.64 113.96 -152 116 C-155.36013238 112.91910041 -157.57350633 109.68954055 -159.890625 105.7734375 C-160.24010193 105.18454742 -160.58957886 104.59565735 -160.949646 103.98892212 C-161.68190861 102.75182127 -162.41121508 101.51296629 -163.13769531 100.27246094 C-164.25318188 98.36957208 -165.37975163 96.47358089 -166.5078125 94.578125 C-172 85.27525564 -172 85.27525564 -172 83 C-166.93457207 81.33552169 -162.44360957 80.72420985 -157.09765625 80.8046875 C-156.3750914 80.8075174 -155.65252655 80.81034729 -154.9080658 80.81326294 C-152.62603384 80.82435614 -150.34441103 80.84943912 -148.0625 80.875 C-146.50456301 80.88504389 -144.94661979 80.89416726 -143.38867188 80.90234375 C-139.59229301 80.92425967 -135.7962156 80.95871262 -132 81 C-131.60135742 79.88496094 -131.20271484 78.76992187 -130.79199219 77.62109375 C-127.82061345 69.34805804 -124.67011516 61.49258767 -120 54 C-119.14148438 52.61361328 -119.14148438 52.61361328 -118.265625 51.19921875 C-113.31298817 43.80096167 -107.38406989 38.8919463 -100 34 C-99.39720215 33.58983643 -98.7944043 33.17967285 -98.17333984 32.75708008 C-93.21730298 29.49354398 -88.23518353 27.33374425 -82.625 25.4375 C-81.75504395 25.1394043 -80.88508789 24.84130859 -79.98876953 24.53417969 C-69.27338536 20.96173708 -58.39917774 18.66314103 -47.25390625 16.91625977 C-21.70688627 12.97867313 -21.70688627 12.97867313 0 0 Z " fill="#EC1E30" transform="translate(328,72)"/>
<path d="M0 0 C0.495 0.99 0.495 0.99 1 2 C0.67 2.66 0.34 3.32 0 4 C0.59425781 4.03738281 1.18851563 4.07476562 1.80078125 4.11328125 C13.60208236 5.0493098 22.34538236 8.07285059 32 15 C33.0725 15.763125 34.145 16.52625 35.25 17.3125 C46.77243633 28.57306277 51.11670816 42.07958465 51.375 57.8125 C51.34775434 72.47672212 46.04279866 86.42087781 35.96484375 97.2265625 C21.84450356 109.97136259 4.9591799 111.73409297 -13.09863281 111.17480469 C-25.85432902 110.4062858 -38.80333 104.39579236 -47.48046875 94.9375 C-56.23095398 83.78006896 -60.17830869 72.22079304 -60.1875 58.25 C-60.19974609 57.28578125 -60.21199219 56.3215625 -60.22460938 55.328125 C-60.25269308 41.54838506 -55.42605743 29.06088938 -46.03515625 18.8671875 C-39.01064419 12.18564438 -30.70278346 7.25058098 -21 6 C-21.495 4.02 -21.495 4.02 -22 2 C-18.11649077 5.48176689 -15.6401289 10.03376629 -12.83984375 14.3828125 C-11.26257709 17.06642941 -11.26257709 17.06642941 -9 18 C-8.61714844 16.71222656 -8.61714844 16.71222656 -8.2265625 15.3984375 C-6.94321828 11.84267486 -5.31784652 8.86307753 -3.375 5.625 C-2.74335938 4.56539062 -2.11171875 3.50578125 -1.4609375 2.4140625 C-0.73777344 1.21910156 -0.73777344 1.21910156 0 0 Z " fill="#FEFCFC" transform="translate(186,185)"/>
<path d="M0 0 C0.99 0.495 0.99 0.495 2 1 C-7.46704504 17.60004902 -18.59357015 30.94356709 -35 41 C-28.3913615 37.82338391 -23.2893358 33.82617723 -17.96875 28.79296875 C-16 27 -16 27 -15 27 C-17.11242855 45.98729385 -28.13262635 64.75930685 -42.5078125 77.1640625 C-44.93898716 78.93858548 -47.39227698 80.49798325 -50 82 C-50.88945312 82.51949219 -51.77890625 83.03898437 -52.6953125 83.57421875 C-72.28563996 94.17007706 -94.58194296 95.48032471 -116.35058594 97.35424805 C-117.57503418 97.46119995 -117.57503418 97.46119995 -118.82421875 97.5703125 C-119.53666748 97.62977051 -120.24911621 97.68922852 -120.9831543 97.75048828 C-129.1479013 98.76058045 -132.9505511 105.00588122 -138.1328125 110.9140625 C-140 113 -140 113 -141.48901367 114.40698242 C-143.04983279 116.05253821 -143.99730024 117.56859227 -145.04296875 119.57421875 C-145.39423828 120.24130859 -145.74550781 120.90839844 -146.10742188 121.59570312 C-146.46384766 122.28599609 -146.82027344 122.97628906 -147.1875 123.6875 C-147.55552734 124.38939453 -147.92355469 125.09128906 -148.30273438 125.81445312 C-149.2067894 127.54037635 -150.10406601 129.26984719 -151 131 C-155.11742633 129.62752456 -156.24798628 126.79981344 -158.375 123.25 C-160.56144785 119.61597288 -162.53333931 116.45124547 -165.6015625 113.484375 C-167.93924829 111.06292848 -168.89009863 109.13194702 -170.08740234 106.03564453 C-172.10369833 101.53808542 -175.08391452 97.52588473 -177.8125 93.4375 C-179.1717433 91.37967884 -180.52978752 89.32106523 -181.88671875 87.26171875 C-182.57427246 86.21935059 -183.26182617 85.17698242 -183.97021484 84.10302734 C-187.07707058 79.35343191 -190.09860934 74.55108633 -193.125 69.75 C-197.63293447 62.62620088 -202.24056903 55.58352158 -207 48.625 C-207.51578613 47.87057617 -208.03157227 47.11615234 -208.56298828 46.33886719 C-211.9224524 41.46649559 -215.41492501 36.70858918 -219 32 C-214.05591709 32.63918829 -209.74499152 34.03515951 -205.125 35.8125 C-204.06925781 36.21299561 -204.06925781 36.21299561 -202.9921875 36.62158203 C-198.16823937 38.47857873 -193.54932264 40.53578357 -189 43 C-189.13921875 43.91265625 -189.13921875 43.91265625 -189.28125 44.84375 C-190.01908929 53.80322707 -186.45234746 60.21136061 -182.23583984 67.77392578 C-180.98842666 70.02084665 -179.78207575 72.28606664 -178.58203125 74.55859375 C-172.55765913 85.8551607 -165.94611438 96.76352448 -159.13085938 107.59521484 C-158.46505859 108.65949707 -157.79925781 109.7237793 -157.11328125 110.8203125 C-156.51298096 111.77180176 -155.91268066 112.72329102 -155.29418945 113.70361328 C-154 116 -154 116 -154 118 C-151.33264727 115.51047079 -149.44253657 113.36591866 -148 110 C-149.32 111.98 -150.64 113.96 -152 116 C-155.36013238 112.91910041 -157.57350633 109.68954055 -159.890625 105.7734375 C-160.24010193 105.18454742 -160.58957886 104.59565735 -160.949646 103.98892212 C-161.68190861 102.75182127 -162.41121508 101.51296629 -163.13769531 100.27246094 C-164.25318188 98.36957208 -165.37975163 96.47358089 -166.5078125 94.578125 C-172 85.27525564 -172 85.27525564 -172 83 C-166.93457207 81.33552169 -162.44360957 80.72420985 -157.09765625 80.8046875 C-156.3750914 80.8075174 -155.65252655 80.81034729 -154.9080658 80.81326294 C-152.62603384 80.82435614 -150.34441103 80.84943912 -148.0625 80.875 C-146.50456301 80.88504389 -144.94661979 80.89416726 -143.38867188 80.90234375 C-139.59229301 80.92425967 -135.7962156 80.95871262 -132 81 C-131.60135742 79.88496094 -131.20271484 78.76992187 -130.79199219 77.62109375 C-127.82061345 69.34805804 -124.67011516 61.49258767 -120 54 C-119.14148438 52.61361328 -119.14148438 52.61361328 -118.265625 51.19921875 C-113.31298817 43.80096167 -107.38406989 38.8919463 -100 34 C-99.39720215 33.58983643 -98.7944043 33.17967285 -98.17333984 32.75708008 C-93.21730298 29.49354398 -88.23518353 27.33374425 -82.625 25.4375 C-81.75504395 25.1394043 -80.88508789 24.84130859 -79.98876953 24.53417969 C-69.27338536 20.96173708 -58.39917774 18.66314103 -47.25390625 16.91625977 C-21.70688627 12.97867313 -21.70688627 12.97867313 0 0 Z " fill="#069D5A" transform="translate(328,72)"/>
<path d="M0 0 C0.99 0.495 0.99 0.495 2 1 C-6.82115768 16.46751382 -17.07170482 29.56777349 -32.2578125 39.16796875 C-35.01096291 40.85323313 -35.01096291 40.85323313 -36.8828125 43.03515625 C-39.79266968 45.73563256 -43.08412936 46.90136948 -46.75 48.25 C-47.52786865 48.54447021 -48.3057373 48.83894043 -49.10717773 49.14233398 C-60.4396533 53.36944815 -71.97551159 57.04539499 -83.46826172 60.80810547 C-100.15422625 66.3057105 -114.08935311 72.91110574 -127 85 C-127.67417969 85.60585937 -128.34835938 86.21171875 -129.04296875 86.8359375 C-134.44929164 91.90823129 -138.66780925 98.01745088 -143 104 C-143 100.61976483 -142.12544378 98.16531063 -141 95 C-140.34 95 -139.68 95 -139 95 C-139.33 93.68 -139.66 92.36 -140 91 C-137.03 90.01 -137.03 90.01 -134 89 C-133.67 87.35 -133.34 85.7 -133 84 C-132.34 84 -131.68 84 -131 84 C-130.938125 82.7625 -130.87625 81.525 -130.8125 80.25 C-129.22820034 66.52653947 -119.63717041 49.41522314 -109.16796875 40.62109375 C-108.18441406 39.90050781 -107.20085937 39.17992187 -106.1875 38.4375 C-105.21167969 37.71433594 -104.23585937 36.99117187 -103.23046875 36.24609375 C-96.5646505 31.61145591 -90.34098546 28.04550613 -82.625 25.4375 C-81.75504395 25.1394043 -80.88508789 24.84130859 -79.98876953 24.53417969 C-69.27338536 20.96173708 -58.39917774 18.66314103 -47.25390625 16.91625977 C-21.70688627 12.97867313 -21.70688627 12.97867313 0 0 Z " fill="#0767AF" transform="translate(328,72)"/>
<path d="M0 0 C4.94408291 0.63918829 9.25500848 2.03515951 13.875 3.8125 C14.57882813 4.07949707 15.28265625 4.34649414 16.0078125 4.62158203 C20.83176063 6.47857873 25.45067736 8.53578357 30 11 C29.86078125 11.91265625 29.86078125 11.91265625 29.71875 12.84375 C28.98091071 21.80322707 32.54765254 28.21136061 36.76416016 35.77392578 C38.01157334 38.02084665 39.21792425 40.28606664 40.41796875 42.55859375 C46.44234087 53.8551607 53.05388562 64.76352448 59.86914062 75.59521484 C60.53494141 76.65949707 61.20074219 77.7237793 61.88671875 78.8203125 C62.48701904 79.77180176 63.08731934 80.72329102 63.70581055 81.70361328 C65 84 65 84 65 86 C67.9297008 83.17493137 70.50174717 80.21203935 73 77 C73 77.66 73 78.32 73 79 C74.98 79.99 74.98 79.99 77 81 C74 87 71 93 68 99 C63.88257367 97.62752456 62.75201372 94.79981344 60.625 91.25 C58.43855215 87.61597288 56.46666069 84.45124547 53.3984375 81.484375 C51.06075171 79.06292848 50.10990137 77.13194702 48.91259766 74.03564453 C46.89630167 69.53808542 43.91608548 65.52588473 41.1875 61.4375 C39.8282567 59.37967884 38.47021248 57.32106523 37.11328125 55.26171875 C36.42572754 54.21935059 35.73817383 53.17698242 35.02978516 52.10302734 C31.92292942 47.35343191 28.90139066 42.55108633 25.875 37.75 C21.36706553 30.62620088 16.75943097 23.58352158 12 16.625 C11.48421387 15.87057617 10.96842773 15.11615234 10.43701172 14.33886719 C7.0775476 9.46649559 3.58507499 4.70858918 0 0 Z " fill="#0C9B5B" transform="translate(109,104)"/>
<path d="M0 0 C0.72256485 0.0028299 1.4451297 0.00565979 2.18959045 0.00857544 C4.47162241 0.01966864 6.75324522 0.04475162 9.03515625 0.0703125 C10.59309324 0.08035639 12.15103646 0.08947976 13.70898438 0.09765625 C17.50536324 0.11957217 21.30144065 0.15402512 25.09765625 0.1953125 C24.34765625 7.9453125 24.34765625 7.9453125 22.09765625 10.1953125 C19.97265625 10.8203125 19.97265625 10.8203125 18.09765625 11.1953125 C18.09765625 12.1853125 18.09765625 13.1753125 18.09765625 14.1953125 C17.43765625 14.1953125 16.77765625 14.1953125 16.09765625 14.1953125 C15.99453125 15.0615625 15.89140625 15.9278125 15.78515625 16.8203125 C14.61448367 22.56725064 12.32297026 26.22607813 8.09765625 30.1953125 C6.7460895 31.84722741 5.40803559 33.51053906 4.09765625 35.1953125 C-0.45649679 28.5322938 -4.67419343 21.70624693 -8.77734375 14.7578125 C-9.3703125 13.76587891 -9.96328125 12.77394531 -10.57421875 11.75195312 C-11.13367188 10.80642578 -11.693125 9.86089844 -12.26953125 8.88671875 C-12.77597168 8.03279541 -13.28241211 7.17887207 -13.80419922 6.29907227 C-14.90234375 4.1953125 -14.90234375 4.1953125 -14.90234375 2.1953125 C-9.83691582 0.53083419 -5.34595332 -0.08047765 0 0 Z " fill="#EA1F31" transform="translate(170.90234375,152.8046875)"/>
<path d="M0 0 C0.66 0 1.32 0 2 0 C3.1577506 3.47325181 3.06866652 6.36067448 3 10 C3.66 10 4.32 10 5 10 C5.02888146 13.31248187 5.04675799 16.62493167 5.0625 19.9375 C5.07087891 20.88302734 5.07925781 21.82855469 5.08789062 22.80273438 C5.09272461 24.15141602 5.09272461 24.15141602 5.09765625 25.52734375 C5.10551147 26.77632446 5.10551147 26.77632446 5.11352539 28.05053711 C5 30 5 30 4 31 C3.64820803 33.3306218 3.31669821 35.66435067 3 38 C2.41166192 40.9416904 1.59004512 43.43826064 0 46 C-1.485 46.495 -1.485 46.495 -3 47 C-2.67 48.65 -2.34 50.3 -2 52 C-2.51949219 52.43570313 -3.03898437 52.87140625 -3.57421875 53.3203125 C-6.88366177 56.1464912 -10.02464558 58.85591013 -12.6875 62.3125 C-15.0930007 65.10808189 -16.43700167 66.17776962 -20 67 C-21.3433953 66.70986562 -22.67988956 66.38235757 -24 66 C-23.3709375 65.68289063 -22.741875 65.36578125 -22.09375 65.0390625 C-10.10820951 58.50477687 -3.5183352 48.00198364 0.59765625 35.13110352 C1.99400482 30.11452322 2.31265375 25.37769219 2.25 20.1875 C2.24419922 19.01598389 2.24419922 19.01598389 2.23828125 17.82080078 C2.1477943 11.73681019 1.46011913 5.91869719 0 0 Z " fill="#DD3A48" transform="translate(234,223)"/>
<path d="M0 0 C-0.54712646 0.18062988 -1.09425293 0.36125977 -1.65795898 0.54736328 C-11.22615693 3.71045347 -20.79161281 6.88426875 -30.3125 10.1875 C-30.9737085 10.41260254 -31.63491699 10.63770508 -32.31616211 10.86962891 C-36.51438573 12.34031362 -40.34367978 14.1466499 -44.22729492 16.3215332 C-46 17 -46 17 -49 16 C-44.375 13 -44.375 13 -41 13 C-41.33 12.01 -41.66 11.02 -42 10 C-34.56497941 7.317401 -27.22475117 5.34307673 -19.4765625 3.796875 C-15.01627717 2.77451746 -10.79946134 1.28856347 -6.5234375 -0.328125 C-3.7965862 -1.05415971 -2.63947737 -0.77652263 0 0 Z " fill="#57B4C6" transform="translate(268,125)"/>
<path d="M0 0 C0.72256485 0.0028299 1.4451297 0.00565979 2.18959045 0.00857544 C4.47162241 0.01966864 6.75324522 0.04475162 9.03515625 0.0703125 C10.59309324 0.08035639 12.15103646 0.08947976 13.70898438 0.09765625 C17.50536324 0.11957217 21.30144065 0.15402512 25.09765625 0.1953125 C24.51171875 6.34765625 24.51171875 6.34765625 24.09765625 8.1953125 C23.43765625 8.5253125 22.77765625 8.8553125 22.09765625 9.1953125 C22.42765625 6.8853125 22.75765625 4.5753125 23.09765625 2.1953125 C18.48933834 2.31392434 13.88122012 2.43819611 9.27319336 2.56762695 C7.70682889 2.61083589 6.14042158 2.65252041 4.57397461 2.69262695 C2.31741445 2.75067121 0.06106717 2.81426552 -2.1953125 2.87890625 C-2.89134079 2.89561874 -3.58736908 2.91233124 -4.30448914 2.92955017 C-7.94107172 3.03939669 -11.36026802 3.35253241 -14.90234375 4.1953125 C-14.90234375 3.5353125 -14.90234375 2.8753125 -14.90234375 2.1953125 C-9.83691582 0.53083419 -5.34595332 -0.08047765 0 0 Z " fill="#D63340" transform="translate(170.90234375,152.8046875)"/>
<path d="M0 0 C2.31 0.33 4.62 0.66 7 1 C5.68 1.33 4.36 1.66 3 2 C8.99659719 12.89236978 15.32008636 23.51295394 22 34 C23.98 31.36 25.96 28.72 28 26 C28.33 26.66 28.66 27.32 29 28 C28.05016642 29.50539661 27.08988109 31.00420347 26.125 32.5 C25.59132812 33.3353125 25.05765625 34.170625 24.5078125 35.03125 C23.76144531 36.00578125 23.76144531 36.00578125 23 37 C22.34 37 21.68 37 21 37 C19.47570545 34.75366109 18.08401424 32.5171474 16.71875 30.17578125 C16.30459839 29.47736618 15.89044678 28.77895111 15.46374512 28.05937195 C14.58610247 26.57590577 13.71206057 25.09030447 12.84130859 23.6027832 C11.51317673 21.33499926 10.17365448 19.07427599 8.83203125 16.81445312 C7.98108314 15.37280153 7.13080135 13.93075639 6.28125 12.48828125 C5.68274231 11.47704948 5.68274231 11.47704948 5.07214355 10.44538879 C3.08388504 7.03956667 1.34282557 3.72544574 0 0 Z " fill="#C2B6A0" transform="translate(153,153)"/>
<path d="M0 0 C0.5775 0.66 1.155 1.32 1.75 2 C3.99653977 4.44290923 3.99653977 4.44290923 8 4 C8.33 4.33 8.66 4.66 9 5 C9.33 3.68 9.66 2.36 10 1 C14 6.75 14 6.75 14 9 C14.99 8.67 15.98 8.34 17 8 C17 8.66 17 9.32 17 10 C15.35 10 13.7 10 12 10 C12.33 12.64 12.66 15.28 13 18 C10.86231472 15.4042393 8.88847966 12.82732335 7.0625 10 C5.06183448 6.89491932 5.06183448 6.89491932 2.25 4.25 C1.5075 3.5075 0.765 2.765 0 2 C0 1.34 0 0.68 0 0 Z " fill="#2B9C67" transform="translate(160,181)"/>
<path d="M0 0 C0.66 0.33 1.32 0.66 2 1 C1.04480469 1.84820312 0.08960938 2.69640625 -0.89453125 3.5703125 C-9.59450939 11.42071425 -17.08611515 19.54192051 -24 29 C-24 25.61976483 -23.12544378 23.16531063 -22 20 C-21.34 20 -20.68 20 -20 20 C-20.33 18.68 -20.66 17.36 -21 16 C-19.02 15.34 -17.04 14.68 -15 14 C-14.67 12.35 -14.34 10.7 -14 9 C-12.68 9 -11.36 9 -10 9 C-7.32683298 7.03078415 -7.32683298 7.03078415 -4.75 4.5 C-3.85796875 3.6646875 -2.9659375 2.829375 -2.046875 1.96875 C-1.37140625 1.3190625 -0.6959375 0.669375 0 0 Z " fill="#ABA3A0" transform="translate(209,147)"/>
<path d="M0 0 C0.66 0 1.32 0 2 0 C3.1577506 3.47325181 3.06866652 6.36067448 3 10 C3.66 10 4.32 10 5 10 C5.02888146 13.31248187 5.04675799 16.62493167 5.0625 19.9375 C5.07087891 20.88302734 5.07925781 21.82855469 5.08789062 22.80273438 C5.09111328 23.70185547 5.09433594 24.60097656 5.09765625 25.52734375 C5.10289307 26.35999756 5.10812988 27.19265137 5.11352539 28.05053711 C5 30 5 30 4 31 C3.63239269 33.32817964 3.29758419 35.6618385 3 38 C2.67 38 2.34 38 2 38 C2.01047363 37.23969482 2.02094727 36.47938965 2.03173828 35.69604492 C2.07375821 32.19323134 2.0994708 28.69047108 2.125 25.1875 C2.14175781 23.99189453 2.15851563 22.79628906 2.17578125 21.56445312 C2.21623057 14.14200357 1.64462645 7.24321669 0 0 Z " fill="#D82C3A" transform="translate(234,223)"/>
<path d="M0 0 C0.66 0.33 1.32 0.66 2 1 C-2.455 7.93 -2.455 7.93 -7 15 C-7.33 13.68 -7.66 12.36 -8 11 C-7.34 11 -6.68 11 -6 11 C-6.33 10.34 -6.66 9.68 -7 9 C-8.98 9.33 -10.96 9.66 -13 10 C-13 9.34 -13 8.68 -13 8 C-11.06753564 6.73792297 -9.07723953 5.56359129 -7.0625 4.4375 C-3.31381893 2.52358755 -3.31381893 2.52358755 0 0 Z " fill="#1769A6" transform="translate(328,72)"/>
<path d="M0 0 C4.74745058 3.77361456 7.78594454 8.93040736 11 14 C10.67 14.66 10.34 15.32 10 16 C9.62488281 15.37351563 9.24976563 14.74703125 8.86328125 14.1015625 C8.35152344 13.28429687 7.83976562 12.46703125 7.3125 11.625 C6.81363281 10.81289062 6.31476563 10.00078125 5.80078125 9.1640625 C3.72524965 6.66982279 2.06302098 5.94969305 -1 5 C-1 4.34 -1 3.68 -1 3 C-3.97 2.505 -3.97 2.505 -7 2 C-7 2.66 -7 3.32 -7 4 C-8.32 3.67 -9.64 3.34 -11 3 C-4.11328125 -0.84375 -4.11328125 -0.84375 0 0 Z " fill="#CE6E6B" transform="translate(145,159)"/>
<path d="M0 0 C0.66 0 1.32 0 2 0 C1.99476318 0.80630859 1.98952637 1.61261719 1.98413086 2.44335938 C1.96322638 6.12889819 1.95029714 9.81442448 1.9375 13.5 C1.92912109 14.7684375 1.92074219 16.036875 1.91210938 17.34375 C1.89565863 23.66083499 1.99908986 29.75810372 3 36 C2.67 35.34 2.34 34.68 2 34 C1.34 34 0.68 34 0 34 C0 22.78 0 11.56 0 0 Z " fill="#DE424F" transform="translate(125,226)"/>
<path d="M0 0 C-0.57065878 6.41991126 -2.67344909 12.01589463 -5 18 C-5.33 18 -5.66 18 -6 18 C-5.67 15.03 -5.34 12.06 -5 9 C-4.34 9 -3.68 9 -3 9 C-3.33 8.01 -3.66 7.02 -4 6 C-5.65 7.32 -7.3 8.64 -9 10 C-9.66 9.67 -10.32 9.34 -11 9 C-9.35687553 7.49703315 -7.71042916 5.99769719 -6.0625 4.5 C-5.14597656 3.6646875 -4.22945313 2.829375 -3.28515625 1.96875 C-1 0 -1 0 0 0 Z " fill="#1F9A68" transform="translate(313,99)"/>
<path d="M0 0 C5.2584002 0.67415387 10.02638346 2.24265549 15 4 C11.61682513 4.97591583 9.4342662 4.85856655 6 4 C6 4.66 6 5.32 6 6 C6.99 6 7.98 6 9 6 C9.66 8.64 10.32 11.28 11 14 C8.16737886 11.26138177 5.66021341 8.42826734 3.25 5.3125 C2.63640625 4.52488281 2.0228125 3.73726563 1.390625 2.92578125 C0 1 0 1 0 0 Z " fill="#269C6C" transform="translate(109,104)"/>
<path d="M0 0 C0.33 0.99 0.66 1.98 1 3 C-6.68931285 4.06059488 -14.24506486 4.09928082 -22 4 C-22 3.67 -22 3.34 -22 3 C-19.08397391 2.49599549 -16.16727908 1.99665334 -13.25 1.5 C-12.425 1.35691406 -11.6 1.21382813 -10.75 1.06640625 C-9.95078125 0.93105469 -9.1515625 0.79570312 -8.328125 0.65625 C-7.5949707 0.53056641 -6.86181641 0.40488281 -6.10644531 0.27539062 C-4 0 -4 0 0 0 Z " fill="#FCCDD0" transform="translate(212,329)"/>
<path d="M0 0 C0.33 0.66 0.66 1.32 1 2 C0.67 2.66 0.34 3.32 0 4 C1.98 4 3.96 4 6 4 C6 4.33 6 4.66 6 5 C5.2575 5.061875 4.515 5.12375 3.75 5.1875 C0.16992409 6.2452497 -0.80146992 8.06862656 -3 11 C-3.99 11.33 -4.98 11.66 -6 12 C-4.43358249 7.69235185 -2.31663844 3.93828536 0 0 Z " fill="#DDDBD0" transform="translate(186,185)"/>
<path d="M0 0 C0.66 0.33 1.32 0.66 2 1 C-4.21962302 8.99360485 -4.21962302 8.99360485 -9 10 C-10.34277973 9.70702988 -11.67893324 9.37904025 -13 9 C-12.31292969 8.60167969 -11.62585938 8.20335937 -10.91796875 7.79296875 C-10.01691406 7.26316406 -9.11585938 6.73335938 -8.1875 6.1875 C-7.29417969 5.66542969 -6.40085938 5.14335937 -5.48046875 4.60546875 C-3.33168013 3.21467801 -1.70638383 1.8877934 0 0 Z " fill="#DC2E41" transform="translate(223,280)"/>
<path d="M0 0 C-3.56399578 2.37599719 -7.08381174 3.15731805 -11.1875 4.125 C-11.93708984 4.30675781 -12.68667969 4.48851563 -13.45898438 4.67578125 C-15.30470781 5.12251686 -17.15219132 5.5619694 -19 6 C-19 5.34 -19 4.68 -19 4 C-12.55748651 1.0364438 -7.16130254 -0.1705072 0 0 Z " fill="#D4EFFA" transform="translate(264,92)"/>
<path d="M0 0 C0.66 0 1.32 0 2 0 C4.66815719 7.69057071 3.76557692 15.05455308 3 23 C2.67 23 2.34 23 2 23 C1.34 15.41 0.68 7.82 0 0 Z " fill="#FEDFE1" transform="translate(280,224)"/>
<path d="M0 0 C-0.598125 0.226875 -1.19625 0.45375 -1.8125 0.6875 C-4.22622044 1.87747021 -4.22622044 1.87747021 -5.375 4.625 C-5.91125 5.40875 -6.4475 6.1925 -7 7 C-10.1875 7.3125 -10.1875 7.3125 -13 7 C-4.84931507 -1.61643836 -4.84931507 -1.61643836 0 0 Z " fill="#DF3946" transform="translate(127,168)"/>
<path d="M0 0 C0.66 0.33 1.32 0.66 2 1 C1.67 1.66 1.34 2.32 1 3 C0.34 3 -0.32 3 -1 3 C-1.1546875 3.9590625 -1.1546875 3.9590625 -1.3125 4.9375 C-1.539375 5.618125 -1.76625 6.29875 -2 7 C-2.99 7.33 -3.98 7.66 -5 8 C-6.38576923 9.62332967 -7.72641268 11.28724465 -9 13 C-9.66 12.67 -10.32 12.34 -11 12 C-7.37 8.04 -3.74 4.08 0 0 Z " fill="#DB4654" transform="translate(110,177)"/>
<path d="M0 0 C0.7425 0.185625 1.485 0.37125 2.25 0.5625 C4.94990963 0.99203108 6.44631077 0.85122974 9 0 C7.68 2.31 6.36 4.62 5 7 C2.47411298 4.63707344 1.11179163 3.33537489 0 0 Z " fill="#D72D3B" transform="translate(171,181)"/>
<path d="M0 0 C0.66 0.33 1.32 0.66 2 1 C0.59447701 2.03612271 -0.82491694 3.05344925 -2.25 4.0625 C-3.43335938 4.91521484 -3.43335938 4.91521484 -4.640625 5.78515625 C-7 7 -7 7 -9.296875 6.68359375 C-9.85890625 6.45800781 -10.4209375 6.23242188 -11 6 C-9.73168307 5.18357746 -8.46024069 4.37200895 -7.1875 3.5625 C-6.47980469 3.11003906 -5.77210938 2.65757812 -5.04296875 2.19140625 C-3 1 -3 1 0 0 Z " fill="#FCD2D4" transform="translate(157,193)"/>
<path d="M0 0 C0.66 0.33 1.32 0.66 2 1 C0.35 4.3 -1.3 7.6 -3 11 C-3.33 11 -3.66 11 -4 11 C-4.8125 8.3125 -4.8125 8.3125 -5 5 C-2.5625 2.125 -2.5625 2.125 0 0 Z " fill="#DFF4FA" transform="translate(205,128)"/>
<path d="M0 0 C0.33 1.32 0.66 2.64 1 4 C-1.98671756 6.57189568 -4.13857796 8.21616433 -8 9 C-7.04270084 7.87411986 -6.08412105 6.7493285 -5.125 5.625 C-4.59132812 4.99851562 -4.05765625 4.37203125 -3.5078125 3.7265625 C-2.38567993 2.44163349 -1.20628025 1.20628025 0 0 Z " fill="#FCCCD3" transform="translate(260,299)"/>
<path d="M0 0 C1.72357119 2.58535679 2.44735018 4.03811614 3.1875 6.9375 C3.36667969 7.60652344 3.54585938 8.27554688 3.73046875 8.96484375 C4.03268678 11.24680888 3.68756692 12.82026659 3 15 C0.31780178 9.63560356 -0.3152595 5.98993047 0 0 Z " fill="#DB4752" transform="translate(277,215)"/>
<path d="M0 0 C0.66 0 1.32 0 2 0 C1.67 1.98 1.34 3.96 1 6 C0.34 6 -0.32 6 -1 6 C-1.33 7.65 -1.66 9.3 -2 11 C-2.66 11 -3.32 11 -4 11 C-4 11.66 -4 12.32 -4 13 C-4.66 12.67 -5.32 12.34 -6 12 C-5.566875 11.21753906 -5.13375 10.43507813 -4.6875 9.62890625 C-4.130625 8.61699219 -3.57375 7.60507813 -3 6.5625 C-2.443125 5.55316406 -1.88625 4.54382813 -1.3125 3.50390625 C0.07737752 1.32355869 0.07737752 1.32355869 0 0 Z " fill="#D4EEF9" transform="translate(329,71)"/>
<path d="M0 0 C0.66 0 1.32 0 2 0 C0.77782954 4.04256383 -0.62754296 7.49288959 -3 11 C-3.33 11 -3.66 11 -4 11 C-4 9.35 -4 7.7 -4 6 C-3.34 6 -2.68 6 -2 6 C-1.855625 5.195625 -1.71125 4.39125 -1.5625 3.5625 C-1 1 -1 1 0 0 Z " fill="#249C6B" transform="translate(305,118)"/>
<path d="M0 0 C0.66 0.33 1.32 0.66 2 1 C0.68 3.31 -0.64 5.62 -2 8 C-2.33 7.34 -2.66 6.68 -3 6 C-4.65 6 -6.3 6 -8 6 C-5.33333333 4 -2.66666667 2 0 0 Z " fill="#3A7CAB" transform="translate(328,72)"/>
<path d="M0 0 C0.66 0 1.32 0 2 0 C2.6708712 1.6232687 3.33657029 3.24867578 4 4.875 C4.556875 6.23238281 4.556875 6.23238281 5.125 7.6171875 C6 10 6 10 6 12 C5.34 12 4.68 12 4 12 C3.3291288 10.3767313 2.66342971 8.75132422 2 7.125 C1.62875 6.22007812 1.2575 5.31515625 0.875 4.3828125 C0 2 0 2 0 0 Z " fill="#D72F3C" transform="translate(85,268)"/>
<path d="M0 0 C5.41390868 0.46671627 9.20517932 1.24297811 14 4 C10.30962722 5.37095624 8.29116165 4.60010967 4.75 3.0625 C3.85796875 2.68222656 2.9659375 2.30195313 2.046875 1.91015625 C1.37140625 1.60980469 0.6959375 1.30945313 0 1 C0 0.67 0 0.34 0 0 Z " fill="#FCCDD3" transform="translate(196,191)"/>
<path d="M0 0 C1.98 0 3.96 0 6 0 C5.4140625 6.15234375 5.4140625 6.15234375 5 8 C4.01 8.495 4.01 8.495 3 9 C3.33 6.69 3.66 4.38 4 2 C2.35 2 0.7 2 -1 2 C-0.67 1.34 -0.34 0.68 0 0 Z " fill="#D23645" transform="translate(190,153)"/>
<path d="M0 0 C0.99 0.33 1.98 0.66 3 1 C0.69 3.31 -1.62 5.62 -4 8 C-4.66 6.68 -5.32 5.36 -6 4 C-5.01 4.33 -4.02 4.66 -3 5 C-2.87625 4.360625 -2.7525 3.72125 -2.625 3.0625 C-2.41875 2.381875 -2.2125 1.70125 -2 1 C-1.34 0.67 -0.68 0.34 0 0 Z " fill="#1C6EA4" transform="translate(310,96)"/>
<path d="M0 0 C0.33 0.66 0.66 1.32 1 2 C-0.375 4 -0.375 4 -2 6 C-2.66 6 -3.32 6 -4 6 C-4.33 7.32 -4.66 8.64 -5 10 C-6.32 9.67 -7.64 9.34 -9 9 C-6 6 -3 3 0 0 Z " fill="#CEF3E1" transform="translate(295,138)"/>
<path d="M0 0 C2.9555377 2.75170751 5.11563315 5.41970299 7 9 C7 9.66 7 10.32 7 11 C6.01 11 5.02 11 4 11 C3.87625 10.360625 3.7525 9.72125 3.625 9.0625 C3.41875 8.381875 3.2125 7.70125 3 7 C2.34 6.67 1.68 6.34 1 6 C0.375 2.9375 0.375 2.9375 0 0 Z " fill="#CFF6E2" transform="translate(124,125)"/>
<path d="M0 0 C0.33 0 0.66 0 1 0 C1.5497272 5.63470383 -0.04952165 8.38987758 -3 13 C-4 11 -4 11 -3.22265625 8.3984375 C-2.83980469 7.40070313 -2.45695312 6.40296875 -2.0625 5.375 C-1.68222656 4.37210937 -1.30195313 3.36921875 -0.91015625 2.3359375 C-0.60980469 1.56507812 -0.30945313 0.79421875 0 0 Z " fill="#C4F1E0" transform="translate(312,104)"/>
<path d="M0 0 C0.33 0 0.66 0 1 0 C1.36552803 1.41377782 1.71695495 2.83120576 2.0625 4.25 C2.25972656 5.03890625 2.45695312 5.8278125 2.66015625 6.640625 C3.01497267 9.10394822 2.76877544 10.65604132 2 13 C2 12.34 2 11.68 2 11 C1.34 11 0.68 11 0 11 C0 7.37 0 3.74 0 0 Z " fill="#D52F3D" transform="translate(125,249)"/>
<path d="M0 0 C4.43458973 1.3937282 6.87378374 3.60582235 10 7 C7 7 7 7 5 6 C5 5.34 5 4.68 5 4 C2.525 3.01 2.525 3.01 0 2 C0 1.34 0 0.68 0 0 Z " fill="#D33041" transform="translate(240,169)"/>
<path d="M0 0 C0.66 0.33 1.32 0.66 2 1 C-0.3125 3.5 -0.3125 3.5 -3 6 C-3.99 6 -4.98 6 -6 6 C-5 3 -5 3 -2.5625 1.25 C-1.716875 0.8375 -0.87125 0.425 0 0 Z " fill="#109D68" transform="translate(216,144)"/>
<path d="M0 0 C-2.3129482 2.3129482 -3.47904875 2.49580975 -6.625 3.125 C-7.44226563 3.29257813 -8.25953125 3.46015625 -9.1015625 3.6328125 C-10.04128906 3.81457031 -10.04128906 3.81457031 -11 4 C-10.67 3.01 -10.34 2.02 -10 1 C-6.59437148 0.22157062 -3.49234244 -0.09978121 0 0 Z " fill="#1069A1" transform="translate(254,127)"/>
<path d="M0 0 C0.66 0.33 1.32 0.66 2 1 C1.4375 2.875 1.4375 2.875 0 5 C-3.625 6.25 -3.625 6.25 -7 7 C-4.66666667 4.66666667 -2.33333333 2.33333333 0 0 Z " fill="#2375AC" transform="translate(222,110)"/>
<path d="M0 0 C0.66 0.33 1.32 0.66 2 1 C-2.296875 5.00390625 -2.296875 5.00390625 -4 6 C-6.203125 5.65234375 -6.203125 5.65234375 -8 5 C-6.71475739 4.13619741 -5.42157581 3.28419631 -4.125 2.4375 C-3.04605469 1.72400391 -3.04605469 1.72400391 -1.9453125 0.99609375 C-1.30335938 0.66738281 -0.66140625 0.33867187 0 0 Z " fill="#FDD0D8" transform="translate(240,316)"/>
<path d="M0 0 C0.33 0 0.66 0 1 0 C1.19622241 4.21878192 0.80230168 7.17010894 -1 11 C-1.66 11 -2.32 11 -3 11 C-2.44894091 7.0507432 -1.61064629 3.65079826 0 0 Z " fill="#D83845" transform="translate(88,207)"/>
<path d="M0 0 C2 1 2 1 2.8515625 3.28515625 C3.10679687 4.20167969 3.36203125 5.11820313 3.625 6.0625 C3.88539063 6.98160156 4.14578125 7.90070313 4.4140625 8.84765625 C4.60742188 9.55792969 4.80078125 10.26820313 5 11 C1.87729874 8.48169253 1.05476902 7.2738451 0.25 3.25 C0.1675 2.1775 0.085 1.105 0 0 Z " fill="#D83B4B" transform="translate(272,204)"/>
<path d="M0 0 C2.31 0.33 4.62 0.66 7 1 C5.68 1.33 4.36 1.66 3 2 C3.350625 2.598125 3.70125 3.19625 4.0625 3.8125 C5 6 5 6 4 9 C0 2.25 0 2.25 0 0 Z " fill="#D0C0B1" transform="translate(153,153)"/>
<path d="M0 0 C4.55737263 0.43820891 7.57653445 0.85041169 11 4 C8 5 8 5 5.95703125 4.22265625 C5.24933594 3.83980469 4.54164063 3.45695312 3.8125 3.0625 C3.09707031 2.68222656 2.38164063 2.30195313 1.64453125 1.91015625 C1.10183594 1.60980469 0.55914062 1.30945313 0 1 C0 0.67 0 0.34 0 0 Z " fill="#DC3647" transform="translate(125,318)"/>
<path d="M0 0 C0.66 1.32 1.32 2.64 2 4 C1.34 4 0.68 4 0 4 C-0.33 4.99 -0.66 5.98 -1 7 C-1.66 7 -2.32 7 -3 7 C-3 7.66 -3 8.32 -3 9 C-3.66 8.67 -4.32 8.34 -5 8 C-3.35 5.36 -1.7 2.72 0 0 Z " fill="#FCD5D9" transform="translate(270,285)"/>
<path d="M0 0 C-0.33 1.65 -0.66 3.3 -1 5 C-3.97 4.505 -3.97 4.505 -7 4 C-3.17391304 0 -3.17391304 0 0 0 Z " fill="#DA3A44" transform="translate(133,163)"/>
<path d="M0 0 C2.40072955 2.88087546 4.47291037 5.56404834 6 9 C3.525 8.01 3.525 8.01 1 7 C0.67 4.69 0.34 2.38 0 0 Z " fill="#CDF4DE" transform="translate(139,148)"/>
<path d="M0 0 C-2.8125 2.0625 -2.8125 2.0625 -6 4 C-6.99 3.67 -7.98 3.34 -9 3 C-9 2.34 -9 1.68 -9 1 C-2.25 -1.125 -2.25 -1.125 0 0 Z " fill="#4BABC1" transform="translate(219,143)"/>
<path d="M0 0 C0.66 0 1.32 0 2 0 C2 0.66 2 1.32 2 2 C3.98 2 5.96 2 8 2 C8.33 2.99 8.66 3.98 9 5 C5.7 4.01 2.4 3.02 -1 2 C-0.67 1.34 -0.34 0.68 0 0 Z " fill="#CEF4E6" transform="translate(120,105)"/>
<path d="M0 0 C7.50769231 -0.36923077 7.50769231 -0.36923077 10 1.5 C10.495 2.2425 10.495 2.2425 11 3 C9.741875 2.87625 8.48375 2.7525 7.1875 2.625 C6.12595703 2.52058594 6.12595703 2.52058594 5.04296875 2.4140625 C3 2 3 2 0 0 Z " fill="#DC3E4F" transform="translate(146,327)"/>
<path d="M0 0 C0.66 0 1.32 0 2 0 C1.5205537 4.21912747 0.83374881 6.79663178 -2 10 C-2 8.02 -2 6.04 -2 4 C-1.34 4 -0.68 4 0 4 C0 2.68 0 1.36 0 0 Z " fill="#DD2D3E" transform="translate(275,269)"/>
<path d="M0 0 C0.66 0.33 1.32 0.66 2 1 C0.68 4.63 -0.64 8.26 -2 12 C-2.33 12 -2.66 12 -3 12 C-2.88541307 10.56163249 -2.75790884 9.12429034 -2.625 7.6875 C-2.55539063 6.88699219 -2.48578125 6.08648437 -2.4140625 5.26171875 C-2 3 -2 3 0 0 Z " fill="#FED6D7" transform="translate(87,206)"/>
<path d="M0 0 C0.66 0.33 1.32 0.66 2 1 C1.34 2.98 0.68 4.96 0 7 C-0.99 6.67 -1.98 6.34 -3 6 C-3 5.34 -3 4.68 -3 4 C-2.34 4 -1.68 4 -1 4 C-0.67 2.68 -0.34 1.36 0 0 Z " fill="#249B69" transform="translate(177,196)"/>
<path d="M0 0 C0.33 0.99 0.66 1.98 1 3 C-0.32 4.32 -1.64 5.64 -3 7 C-3.66 6.67 -4.32 6.34 -5 6 C-3.35 4.02 -1.7 2.04 0 0 Z " fill="#D4293D" transform="translate(194,177)"/>
<path d="M0 0 C-0.33 0.66 -0.66 1.32 -1 2 C-4.3 1.67 -7.6 1.34 -11 1 C-11 0.67 -11 0.34 -11 0 C-6.98195309 -0.84098656 -3.98196457 -1.05404945 0 0 Z " fill="#2674B3" transform="translate(275,92)"/>
</svg>
