<svg width="19" height="18" viewBox="0 0 19 18" fill="none" xmlns="http://www.w3.org/2000/svg">
<path d="M6.16667 17L9.08333 14.0833L12 17M9.08333 0.75V2.41667M6.58333 9.08333V10.75M9.08333 7.41667V10.75M11.5833 5.75V10.75M17.4167 2.91667V13.5833C17.4167 13.649 17.4037 13.714 17.3786 13.7747C17.3535 13.8353 17.3166 13.8905 17.2702 13.9369C17.2238 13.9833 17.1687 14.0201 17.108 14.0453C17.0473 14.0704 16.9823 14.0833 16.9167 14.0833H1.25C1.11739 14.0833 0.990215 14.0307 0.896447 13.9369C0.802678 13.8431 0.75 13.7159 0.75 13.5833V2.91667C0.75 2.78406 0.802678 2.65688 0.896447 2.56311C0.990215 2.46935 1.11739 2.41667 1.25 2.41667H16.9167C17.0493 2.41667 17.1765 2.46935 17.2702 2.56311C17.364 2.65688 17.4167 2.78406 17.4167 2.91667Z" stroke="#626C70" stroke-width="1.5" stroke-linecap="round" stroke-linejoin="round"/>
</svg>
