<svg width="23" height="23" viewBox="0 0 23 23" fill="none" xmlns="http://www.w3.org/2000/svg">
<path d="M1.94205 11.6296C1.86356 11.4181 1.86356 11.1856 1.94205 10.9741C2.70649 9.12054 4.00409 7.5357 5.67034 6.4205C7.33659 5.3053 9.29645 4.70996 11.3015 4.70996C13.3065 4.70996 15.2663 5.3053 16.9326 6.4205C18.5988 7.5357 19.8964 9.12054 20.6609 10.9741C20.7394 11.1856 20.7394 11.4181 20.6609 11.6296C19.8964 13.4831 18.5988 15.068 16.9326 16.1832C15.2663 17.2984 13.3065 17.8937 11.3015 17.8937C9.29645 17.8937 7.33659 17.2984 5.67034 16.1832C4.00409 15.068 2.70649 13.4831 1.94205 11.6296Z" stroke="#6A7282" stroke-width="1.88356" stroke-linecap="round" stroke-linejoin="round"/>
<path d="M11.3014 14.1263C12.8618 14.1263 14.1268 12.8613 14.1268 11.3009C14.1268 9.74053 12.8618 8.47559 11.3014 8.47559C9.74102 8.47559 8.47607 9.74053 8.47607 11.3009C8.47607 12.8613 9.74102 14.1263 11.3014 14.1263Z" stroke="#6A7282" stroke-width="1.88356" stroke-linecap="round" stroke-linejoin="round"/>
</svg>
