<svg width="13" height="13" viewBox="0 0 13 13" fill="none" xmlns="http://www.w3.org/2000/svg">
<path d="M7.14583 1.1875C7.26187 1.1875 7.37315 1.14141 7.45519 1.05936C7.53724 0.977312 7.58333 0.866032 7.58333 0.75C7.58333 0.633968 7.53724 0.522688 7.45519 0.440641C7.37315 0.358594 7.26187 0.3125 7.14583 0.3125V1.1875ZM12.5417 5.70833C12.5417 5.5923 12.4956 5.48102 12.4135 5.39897C12.3315 5.31693 12.2202 5.27083 12.1042 5.27083C11.9881 5.27083 11.8769 5.31693 11.7948 5.39897C11.7128 5.48102 11.6667 5.5923 11.6667 5.70833H12.5417ZM7.28117 12.2825L7.59733 11.7482L6.84483 11.3025L6.52808 11.8368L7.28117 12.2825ZM4.94433 11.7482L5.2605 12.2825L6.013 11.8368L5.69742 11.3025L4.94433 11.7482ZM6.52808 11.8368C6.50082 11.8805 6.4629 11.9165 6.4179 11.9414C6.3729 11.9663 6.32229 11.9794 6.27083 11.9794C6.21938 11.9794 6.16877 11.9663 6.12377 11.9414C6.07876 11.9165 6.04085 11.8805 6.01358 11.8368L5.2605 12.2825C5.71142 13.0449 6.82967 13.0449 7.28117 12.2825L6.52808 11.8368ZM5.39583 1.1875H7.14583V0.3125H5.39583V1.1875ZM11.6667 5.70833V6.29167H12.5417V5.70833H11.6667ZM0.875 6.29167V5.70833H0V6.29167H0.875ZM0 6.29167C0 6.96542 -2.82501e-08 7.49217 0.0291666 7.91742C0.0583333 8.34617 0.118417 8.70317 0.2555 9.03333L1.064 8.6985C0.97825 8.49317 0.928083 8.24233 0.901833 7.85792C0.875 7.46942 0.875 6.97708 0.875 6.29167H0ZM3.82258 10.2245C3.08992 10.2117 2.70608 10.165 2.40508 10.0402L2.07083 10.8487C2.54042 11.0435 3.07475 11.0873 3.80742 11.1001L3.82258 10.2245ZM0.2555 9.03333C0.424063 9.4403 0.671137 9.81008 0.982613 10.1216C1.29409 10.433 1.66387 10.6801 2.07083 10.8487L2.40508 10.0402C1.79765 9.78855 1.31562 9.30594 1.064 8.6985L0.2555 9.03333ZM11.6667 6.29167C11.6667 6.97708 11.6667 7.46942 11.6398 7.85792C11.6136 8.24233 11.5634 8.49317 11.4782 8.6985L12.2862 9.03333C12.4233 8.70317 12.4833 8.34617 12.5131 7.91742C12.5422 7.49217 12.5417 6.96542 12.5417 6.29167H11.6667ZM8.73425 11.0989C9.46692 11.0867 10.0013 11.0435 10.4708 10.8487L10.136 10.0402C9.83558 10.165 9.45175 10.2117 8.71967 10.2245L8.73425 11.0989ZM11.4782 8.6985C11.2266 9.30594 10.744 9.78855 10.1366 10.0402L10.4708 10.8487C10.8778 10.6801 11.2476 10.433 11.5591 10.1216C11.8705 9.81008 12.1176 9.4403 12.2862 9.03333L11.4782 8.6985ZM5.39583 0.3125C4.44967 0.3125 3.70942 0.3125 3.1185 0.367917C2.52175 0.425083 2.03233 0.542917 1.60183 0.806583L2.05858 1.55325C2.32925 1.387 2.66817 1.29017 3.20192 1.23942C3.74092 1.18808 4.43275 1.1875 5.39583 1.1875V0.3125ZM0.875 5.70833C0.875 4.74525 0.875 4.05342 0.926917 3.51383C0.977667 2.98067 1.0745 2.64175 1.24017 2.37108L0.494083 1.91433C0.230417 2.34483 0.112583 2.83425 0.0554167 3.431C1.73847e-08 4.0225 0 4.76217 0 5.70833H0.875ZM1.60183 0.806583C1.15032 1.08322 0.770717 1.46282 0.494083 1.91433L1.24075 2.37108C1.445 2.03759 1.72524 1.75715 2.05858 1.55267L1.60183 0.806583ZM5.69683 11.3025C5.579 11.1024 5.47517 10.9257 5.37367 10.7868C5.26967 10.6343 5.13397 10.5059 4.97583 10.4106L4.536 11.1672C4.56342 11.1835 4.60133 11.2127 4.66667 11.3025C4.73725 11.3993 4.81717 11.5335 4.94433 11.7482L5.69683 11.3025ZM3.80742 11.0989C4.06408 11.1036 4.22567 11.1071 4.34933 11.1205C4.46483 11.1333 4.50975 11.152 4.536 11.1672L4.97583 10.4106C4.81282 10.3193 4.63186 10.2648 4.44558 10.2508C4.27175 10.2315 4.06292 10.2286 3.82258 10.2245L3.80742 11.0989ZM7.59733 11.7482C7.7245 11.5341 7.80442 11.3993 7.875 11.3025C7.94033 11.2127 7.97825 11.1835 8.00567 11.1672L7.56583 10.4106C7.39667 10.5098 7.27417 10.641 7.168 10.7868C7.06708 10.9257 6.96267 11.1018 6.84425 11.3025L7.59733 11.7482ZM8.71967 10.2245C8.47933 10.2286 8.26992 10.2315 8.09608 10.2508C7.91467 10.2712 7.73675 10.3114 7.56583 10.4106L8.00567 11.1672C8.03192 11.152 8.07683 11.1333 8.19233 11.1205C8.316 11.1071 8.47817 11.103 8.73483 11.0989L8.71967 10.2245Z" fill="#008000"/>
<path d="M10.3541 4.25C11.3206 4.25 12.1041 3.4665 12.1041 2.5C12.1041 1.5335 11.3206 0.75 10.3541 0.75C9.38763 0.75 8.60413 1.5335 8.60413 2.5C8.60413 3.4665 9.38763 4.25 10.3541 4.25Z" stroke="#008000" stroke-width="1.5"/>
</svg>
