<svg width="12" height="13" viewBox="0 0 12 13" fill="none" xmlns="http://www.w3.org/2000/svg">
<path d="M5.83333 0C9.05508 0 11.6667 2.61158 11.6667 5.83333C11.6667 9.05508 9.05508 11.6667 5.83333 11.6667H1.16667C0.857247 11.6667 0.560501 11.5438 0.341709 11.325C0.122916 11.1062 0 10.8094 0 10.5V5.83333C0 2.61158 2.61158 0 5.83333 0ZM5.83333 1.16667C4.59566 1.16667 3.40867 1.65833 2.5335 2.5335C1.65833 3.40867 1.16667 4.59566 1.16667 5.83333V10.5H5.83333C7.07101 10.5 8.258 10.0083 9.13317 9.13317C10.0083 8.258 10.5 7.07101 10.5 5.83333C10.5 4.59566 10.0083 3.40867 9.13317 2.5335C8.258 1.65833 7.07101 1.16667 5.83333 1.16667ZM5.83333 7C5.98201 7.00017 6.12502 7.0571 6.23313 7.15916C6.34124 7.26123 6.4063 7.40072 6.41502 7.54915C6.42373 7.69757 6.37544 7.84372 6.28001 7.95774C6.18459 8.07175 6.04922 8.14502 5.90158 8.16258L5.83333 8.16667H4.08333C3.93465 8.1665 3.79165 8.10957 3.68354 8.00751C3.57542 7.90544 3.51036 7.76594 3.50165 7.61752C3.49294 7.4691 3.54123 7.32295 3.63665 7.20893C3.73208 7.09492 3.86744 7.02164 4.01508 7.00408L4.08333 7H5.83333ZM7.58333 4.66667C7.73804 4.66667 7.88642 4.72813 7.99581 4.83752C8.10521 4.94692 8.16667 5.09529 8.16667 5.25C8.16667 5.40471 8.10521 5.55308 7.99581 5.66248C7.88642 5.77188 7.73804 5.83333 7.58333 5.83333H4.08333C3.92862 5.83333 3.78025 5.77188 3.67085 5.66248C3.56146 5.55308 3.5 5.40471 3.5 5.25C3.5 5.09529 3.56146 4.94692 3.67085 4.83752C3.78025 4.72813 3.92862 4.66667 4.08333 4.66667H7.58333Z" fill="#008000"/>
</svg>
