<svg width="13" height="17" viewBox="0 0 13 17" fill="none" xmlns="http://www.w3.org/2000/svg">
<path fill-rule="evenodd" clip-rule="evenodd" d="M2.29167 0C1.68388 0 1.10098 0.241443 0.671214 0.671214C0.241443 1.10098 0 1.68388 0 2.29167V13.9583C0 14.5661 0.241443 15.149 0.671214 15.5788C1.10098 16.0086 1.68388 16.25 2.29167 16.25H10.625C11.2328 16.25 11.8157 16.0086 12.2455 15.5788C12.6752 15.149 12.9167 14.5661 12.9167 13.9583V4.95667C12.9167 4.65172 12.8211 4.35445 12.6433 4.10667L10.1317 0.608333C9.99674 0.420225 9.81896 0.266941 9.61305 0.161158C9.40714 0.0553754 9.179 0.000133055 8.9475 0H2.29167ZM1.25 2.29167C1.25 1.71667 1.71667 1.25 2.29167 1.25H8.33333V4.91417C8.33333 5.25917 8.61333 5.53917 8.95833 5.53917H11.6667V13.9583C11.6667 14.5333 11.2 15 10.625 15H2.29167C1.71667 15 1.25 14.5333 1.25 13.9583V2.29167Z" fill="#626C70"/>
</svg>
