<svg width="28" height="28" viewBox="0 0 28 28" fill="none" xmlns="http://www.w3.org/2000/svg">
<path d="M15.822 10.7772V7.91117C15.822 6.71225 16.2983 5.56243 17.1461 4.71466C17.9938 3.8669 19.1437 3.39063 20.3426 3.39062H22.0378C22.1877 3.39062 22.3314 3.45016 22.4374 3.55613C22.5433 3.6621 22.6029 3.80583 22.6029 3.95569V5.6509C22.6029 6.84982 22.1266 7.99964 21.2788 8.84741C20.4311 9.69518 19.2812 10.1714 18.0823 10.1714C16.8834 10.1714 15.7336 10.6477 14.8858 11.4955C14.038 12.3433 13.5618 13.4931 13.5618 14.692C13.5618 16.9523 14.6919 18.0824 14.6919 20.3427C14.6919 21.5653 14.2954 22.755 13.5618 23.7331" stroke="white" stroke-width="2.26027" stroke-linecap="round" stroke-linejoin="round"/>
<path d="M4.52075 10.1712C5.36027 9.54152 6.35854 9.15809 7.4037 9.06385C8.44886 8.96961 9.49961 9.16827 10.4382 9.63758C11.3768 10.1069 12.1662 10.8283 12.7179 11.721C13.2696 12.6136 13.5618 13.6423 13.5618 14.6917C12.7223 15.3213 11.7241 15.7048 10.6789 15.799C9.63374 15.8932 8.58299 15.6946 7.64437 15.2253C6.70576 14.756 5.91638 14.0346 5.36468 13.1419C4.81298 12.2492 4.52075 11.2206 4.52075 10.1712Z" stroke="white" stroke-width="2.26027" stroke-linecap="round" stroke-linejoin="round"/>
<path d="M5.65088 23.7334H21.4728" stroke="white" stroke-width="2.26027" stroke-linecap="round" stroke-linejoin="round"/>
</svg>
