<svg width="331" height="126" viewBox="0 0 331 126" fill="none" xmlns="http://www.w3.org/2000/svg">
<g clip-path="url(#clip0_1066_5950)">
<mask id="mask0_1066_5950" style="mask-type:luminance" maskUnits="userSpaceOnUse" x="3" y="5" width="340" height="80">
<path d="M342.088 5.20312H3.81812V84.239H342.088V5.20312Z" fill="white"/>
</mask>
<g mask="url(#mask0_1066_5950)">
<path d="M17.8879 38.0607H23.8104C28.2296 38.0607 30.5144 39.8645 30.5144 43.3819C30.5144 47.3803 27.3277 48.7632 24.0809 48.7632H17.8879V38.0607ZM6.16333 29.4326V76.5114H17.8879V57.3913H21.255C27.5983 57.3913 29.4622 66.4403 34.5128 76.5114H47.4099C40.796 62.7125 39.3229 56.9103 34.5128 54.5052C39.8941 52.01 42.5998 48.1619 42.5998 42.9911C42.5998 35.9563 36.8577 29.4627 27.2075 29.4627H6.16333V29.4326Z" fill="#ED1C2E"/>
</g>
<mask id="mask1_1066_5950" style="mask-type:luminance" maskUnits="userSpaceOnUse" x="3" y="5" width="340" height="80">
<path d="M342.088 5.20312H3.81812V84.239H342.088V5.20312Z" fill="white"/>
</mask>
<g mask="url(#mask1_1066_5950)">
<path d="M60.8779 29.4326H49.1533V76.5114H60.8779V29.4326Z" fill="#ED1C2E"/>
</g>
<mask id="mask2_1066_5950" style="mask-type:luminance" maskUnits="userSpaceOnUse" x="3" y="5" width="340" height="80">
<path d="M342.088 5.20312H3.81812V84.239H342.088V5.20312Z" fill="white"/>
</mask>
<g mask="url(#mask2_1066_5950)">
<path d="M110.242 72.4223C103.688 75.7894 98.7276 77.1122 91.753 77.1122C73.4746 77.1122 64.3655 65.2373 64.3655 53.0918C64.3655 40.5254 74.6471 28.8008 92.6549 28.8008C99.2086 28.8008 105.071 30.1837 109.701 32.9495V43.4415C104.53 40.5554 99.2687 38.6013 93.4966 38.6013C83.4856 38.6013 76.4508 44.5238 76.4508 52.8813C76.4508 61.299 83.4255 67.3116 93.226 67.3116C99.3589 67.3116 103.508 65.3876 110.272 62.1408V72.4223H110.242Z" fill="#ED1C2E"/>
</g>
<mask id="mask3_1066_5950" style="mask-type:luminance" maskUnits="userSpaceOnUse" x="3" y="5" width="340" height="80">
<path d="M342.088 5.20312H3.81812V84.239H342.088V5.20312Z" fill="white"/>
</mask>
<g mask="url(#mask3_1066_5950)">
<path d="M161.168 76.5114H149.444V57.4514H125.964V76.5114H114.24V29.4326H125.964V48.3423H149.444V29.4326H161.168V76.5114Z" fill="#ED1C2E"/>
</g>
<mask id="mask4_1066_5950" style="mask-type:luminance" maskUnits="userSpaceOnUse" x="3" y="5" width="340" height="80">
<path d="M342.088 5.20312H3.81812V84.239H342.088V5.20312Z" fill="white"/>
</mask>
<g mask="url(#mask4_1066_5950)">
<path d="M212.456 42.9603C206.444 40.0742 200.641 38.6011 194.869 38.6011C182.093 38.6011 177.613 46.4777 177.613 53.4523C177.613 61.8098 184.167 67.3114 193.907 67.3114C196.793 67.3114 198.267 67.0408 201.694 65.6579V60.1263H194.869V51.4982H213.448V70.7386C209.931 74.4063 201.243 77.0819 193.637 77.0819C177.222 77.0819 165.558 67.0709 165.558 53.0014C165.558 38.6613 177.162 28.7705 193.907 28.7705C200.942 28.7705 207.766 30.3639 212.486 32.6486V42.9603H212.456Z" fill="#ED1C2E"/>
</g>
<mask id="mask5_1066_5950" style="mask-type:luminance" maskUnits="userSpaceOnUse" x="3" y="5" width="340" height="80">
<path d="M342.088 5.20312H3.81812V84.239H342.088V5.20312Z" fill="white"/>
</mask>
<g mask="url(#mask5_1066_5950)">
<path d="M229.983 38.0607H235.905C240.324 38.0607 242.609 39.8645 242.609 43.3819C242.609 47.3803 239.422 48.7632 236.206 48.7632H229.983V38.0607ZM218.258 29.4326V76.5114H229.983V57.3913H233.35C239.693 57.3913 241.557 66.4403 246.608 76.5114H259.505C252.891 62.7125 251.418 56.9103 246.608 54.5052C251.989 52.01 254.695 48.1619 254.695 42.9911C254.695 35.9563 248.952 29.4627 239.302 29.4627H218.258V29.4326Z" fill="#ED1C2E"/>
</g>
<mask id="mask6_1066_5950" style="mask-type:luminance" maskUnits="userSpaceOnUse" x="3" y="5" width="340" height="80">
<path d="M342.088 5.20312H3.81812V84.239H342.088V5.20312Z" fill="white"/>
</mask>
<g mask="url(#mask6_1066_5950)">
<path d="M299.609 52.9707C299.609 61.5988 293.687 67.3108 284.758 67.3108C275.799 67.3108 269.847 61.5688 269.847 52.9707C269.847 44.3426 275.769 38.6306 284.758 38.6306C293.687 38.6006 299.609 44.3426 299.609 52.9707ZM311.694 52.9707C311.694 41.667 302.525 28.8301 284.788 28.8301C267.051 28.8301 257.791 41.6069 257.791 52.9707C257.791 64.9659 267.532 77.1114 284.788 77.1114C301.683 77.1114 311.694 65.0561 311.694 52.9707Z" fill="#ED1C2E"/>
</g>
<mask id="mask7_1066_5950" style="mask-type:luminance" maskUnits="userSpaceOnUse" x="3" y="5" width="340" height="80">
<path d="M342.088 5.20312H3.81812V84.239H342.088V5.20312Z" fill="white"/>
</mask>
<g mask="url(#mask7_1066_5950)">
<path d="M288.516 31.2058C288.516 31.2058 291.402 27.8688 294.829 26.0049L288.516 31.2058Z" fill="#0064B0"/>
</g>
<mask id="mask8_1066_5950" style="mask-type:luminance" maskUnits="userSpaceOnUse" x="3" y="5" width="340" height="80">
<path d="M342.088 5.20312H3.81812V84.239H342.088V5.20312Z" fill="white"/>
</mask>
<g mask="url(#mask8_1066_5950)">
<path d="M288.516 31.2058C288.516 31.2058 291.402 27.8688 294.829 26.0049" stroke="white" stroke-width="0.179477"/>
</g>
<mask id="mask9_1066_5950" style="mask-type:luminance" maskUnits="userSpaceOnUse" x="3" y="5" width="340" height="80">
<path d="M342.088 5.20312H3.81812V84.239H342.088V5.20312Z" fill="white"/>
</mask>
<g mask="url(#mask9_1066_5950)">
<path d="M288.666 31.2064C288.666 31.2064 293.416 25.5545 299.068 23.9912L288.666 31.2064Z" fill="#0064B0"/>
</g>
<mask id="mask10_1066_5950" style="mask-type:luminance" maskUnits="userSpaceOnUse" x="3" y="5" width="340" height="80">
<path d="M342.088 5.20312H3.81812V84.239H342.088V5.20312Z" fill="white"/>
</mask>
<g mask="url(#mask10_1066_5950)">
<path d="M288.666 31.2064C288.666 31.2064 293.416 25.5545 299.068 23.9912" stroke="white" stroke-width="0.179477"/>
</g>
<mask id="mask11_1066_5950" style="mask-type:luminance" maskUnits="userSpaceOnUse" x="3" y="5" width="340" height="80">
<path d="M342.088 5.20312H3.81812V84.239H342.088V5.20312Z" fill="white"/>
</mask>
<g mask="url(#mask11_1066_5950)">
<path d="M288.516 31.3555C288.516 31.3555 288.576 26.1546 292.755 20.4426C292.755 20.4426 295.49 16.1436 302.345 13.979C302.345 13.979 306.493 12.566 309.981 12.1151C309.981 12.1151 317.226 11.0629 320.443 9.43948C320.443 9.43948 324.14 7.69582 325.072 6.37305C325.072 6.37305 322.276 12.7164 317.076 16.6246C317.076 16.6246 313.949 20.8935 307.876 22.9979C307.876 22.9979 297.234 28.8903 294.949 29.2511C292.664 29.6419 294.769 29.2511 294.769 29.2511C294.769 29.2511 292.093 31.7162 288.516 31.3555Z" fill="#0064B0"/>
</g>
<mask id="mask12_1066_5950" style="mask-type:luminance" maskUnits="userSpaceOnUse" x="3" y="5" width="340" height="80">
<path d="M342.088 5.20312H3.81812V84.239H342.088V5.20312Z" fill="white"/>
</mask>
<g mask="url(#mask12_1066_5950)">
<path d="M288.516 31.3555C288.516 31.3555 288.576 26.1546 292.755 20.4426C292.755 20.4426 295.49 16.1436 302.345 13.979C302.345 13.979 306.493 12.566 309.981 12.1151C309.981 12.1151 317.226 11.0629 320.443 9.43948C320.443 9.43948 324.14 7.69582 325.072 6.37305C325.072 6.37305 322.276 12.7164 317.076 16.6246C317.076 16.6246 313.949 20.8935 307.876 22.9979C307.876 22.9979 297.234 28.8903 294.949 29.2511C292.664 29.6419 294.769 29.2511 294.769 29.2511C294.769 29.2511 292.093 31.7162 288.516 31.3555Z" stroke="white" stroke-width="0.239302"/>
</g>
<mask id="mask13_1066_5950" style="mask-type:luminance" maskUnits="userSpaceOnUse" x="3" y="5" width="340" height="80">
<path d="M342.088 5.20312H3.81812V84.239H342.088V5.20312Z" fill="white"/>
</mask>
<g mask="url(#mask13_1066_5950)">
<path d="M264.826 15.4831C264.826 15.4831 267.291 18.0686 271.891 25.2837C271.891 25.2837 279.737 38.0304 283.375 42.8706C283.375 42.8706 285.329 38.5716 287.253 36.2567C287.253 36.2567 288.876 33.7314 291.672 33.521C291.672 33.521 297.565 33.04 300.451 32.6191C300.451 32.6191 308.387 31.8074 313.017 27.5084C313.017 27.5084 318.819 22.7584 320.322 13.7695C320.322 13.7695 316.685 17.8281 312.115 19.6318C312.115 19.6318 307.365 21.4957 303.637 22.6081C303.637 22.6081 298.587 24.0812 295.55 25.6445C295.55 25.6445 290.47 27.8391 286.411 33.8216C286.411 33.8216 284.247 36.7678 283.164 38.8722C283.164 38.8722 281.691 36.5273 279.286 32.4688C279.286 32.4688 276.671 28.1698 274.747 24.7426C274.747 24.7426 272.221 20.2632 273.664 18.7901C273.634 18.7901 268.253 16.0543 264.826 15.4831Z" fill="#009D57"/>
</g>
<mask id="mask14_1066_5950" style="mask-type:luminance" maskUnits="userSpaceOnUse" x="3" y="5" width="340" height="80">
<path d="M342.088 5.20312H3.81812V84.239H342.088V5.20312Z" fill="white"/>
</mask>
<g mask="url(#mask14_1066_5950)">
<path d="M264.826 15.4831C264.826 15.4831 267.291 18.0686 271.891 25.2837C271.891 25.2837 279.737 38.0304 283.375 42.8706C283.375 42.8706 285.329 38.5716 287.253 36.2567C287.253 36.2567 288.876 33.7314 291.672 33.521C291.672 33.521 297.565 33.04 300.451 32.6191C300.451 32.6191 308.387 31.8074 313.017 27.5084C313.017 27.5084 318.819 22.7584 320.322 13.7695C320.322 13.7695 316.685 17.828 312.115 19.6318C312.115 19.6318 307.365 21.4957 303.637 22.6081C303.637 22.6081 298.587 24.0812 295.55 25.6445C295.55 25.6445 290.47 27.8391 286.411 33.8216C286.411 33.8216 284.247 36.7678 283.164 38.8722C283.164 38.8722 281.691 36.5273 279.286 32.4688C279.286 32.4688 276.671 28.1698 274.747 24.7426C274.747 24.7426 272.221 20.2632 273.664 18.7901C273.634 18.7901 268.253 16.0543 264.826 15.4831Z" stroke="white" stroke-width="0.239302"/>
</g>
<path d="M12.3558 109.732H7.42545C6.9745 109.732 6.85425 109.672 6.85425 109.191V88.6276C6.85425 88.1466 7.00456 88.0264 7.57576 88.0264H11.5742C15.6026 88.0264 18.669 89.3792 18.669 93.2874C18.669 95.6323 17.2861 97.6466 14.7007 98.1576V98.1877C17.8273 98.2478 20.3225 100.262 20.3225 103.539C20.3526 108.409 16.745 109.732 12.3558 109.732ZM11.2735 89.77H9.07892V97.5263H11.514C13.7086 97.5263 16.4744 96.9852 16.4744 93.3475C16.4744 90.3112 14.0093 89.77 11.2735 89.77ZM12.0852 99.2399H9.07892V108.048H12.0852C15.5425 108.048 18.0377 107.086 18.0377 103.629C18.0678 100.202 15.332 99.2399 12.0852 99.2399Z" fill="white"/>
<path d="M30.4537 94.3083C30.6641 94.3383 30.7242 94.4886 30.6942 94.669L30.5438 95.7212C30.5138 95.9016 30.3935 95.9918 30.2132 95.9617C29.8825 95.9016 29.5518 95.8415 29.191 95.8415C28.0486 95.8415 26.786 96.6832 25.9442 97.9459V109.189C25.9442 109.58 25.7939 109.761 25.4331 109.761H24.411C24.0502 109.761 23.8999 109.58 23.8999 109.189V95.1199C23.8999 94.7291 24.0502 94.5488 24.411 94.5488H25.4031C25.7638 94.5488 25.9141 94.7291 25.9141 95.1199L25.9442 96.2323C26.5755 95.2703 27.8983 94.2481 29.4916 94.2481C29.7622 94.2181 30.153 94.2481 30.4537 94.3083Z" fill="white"/>
<path d="M34.5725 92.2347C33.851 92.2347 33.2798 91.7236 33.2798 91.0021C33.2798 90.2806 33.851 89.7695 34.5725 89.7695C35.294 89.7695 35.8953 90.2806 35.8953 91.0021C35.8953 91.7236 35.3241 92.2347 34.5725 92.2347ZM35.5946 109.16C35.5946 109.551 35.4443 109.731 35.0836 109.731H34.0614C33.7007 109.731 33.5504 109.551 33.5504 109.16V95.0907C33.5504 94.6999 33.7007 94.5195 34.0614 94.5195H35.0836C35.4443 94.5195 35.5946 94.6999 35.5946 95.0907V109.16Z" fill="white"/>
<path d="M52.5803 109.159C52.5803 109.55 52.43 109.73 52.0692 109.73H51.0471C50.6863 109.73 50.536 109.55 50.536 109.159V100.17C50.536 97.645 49.9347 95.7811 47.0186 95.7811C45.4253 95.7811 43.4712 96.6829 42.2687 97.7953V109.159C42.2687 109.55 42.1183 109.73 41.7576 109.73H40.7354C40.3747 109.73 40.2244 109.55 40.2244 109.159V95.0896C40.2244 94.6988 40.3747 94.5184 40.7354 94.5184H41.7275C42.0883 94.5184 42.2386 94.6988 42.2386 95.0896L42.2687 96.1719C43.7417 94.8792 45.756 94.2178 47.5598 94.2178C51.2575 94.2178 52.5803 96.4725 52.5803 99.8997V109.159Z" fill="white"/>
<path d="M67.191 115.173C66.1087 116.075 64.4853 116.676 62.3809 116.676C60.998 116.676 59.1942 116.165 57.9616 115.564C57.6309 115.413 57.5708 115.233 57.691 114.993L58.0217 114.181C58.1119 113.94 58.3825 113.82 58.623 113.97C59.8556 114.542 61.1182 114.993 62.4109 114.993C63.9442 114.993 65.1467 114.722 65.9884 113.82C66.8302 112.948 67.2812 111.475 67.2812 109.281V107.747C66.1989 109.04 64.2147 109.762 62.5312 109.762C57.9616 109.762 56.0676 106.184 56.0676 102.095C56.0676 97.8566 58.4426 94.249 62.9521 94.249C64.5755 94.249 66.2891 94.8803 67.3112 96.1731L67.3413 95.0607C67.3413 94.6398 67.5517 94.5497 67.9125 94.5497H68.8745C69.2353 94.5497 69.3555 94.73 69.3555 95.1209V109.07C69.2954 111.836 68.6941 113.88 67.191 115.173ZM67.2511 98.3677C66.5296 96.9246 64.7559 95.7822 63.0122 95.7822C59.8255 95.7822 58.1119 98.3376 58.1119 101.945C58.1119 104.861 59.1942 108.108 62.6815 108.108C64.365 108.108 66.3492 107.176 67.2511 105.823V98.3677Z" fill="white"/>
<path d="M92.7443 95.0302L86.5513 111.625C85.1684 115.323 83.6953 116.676 80.5086 116.676C80.1178 116.676 79.6669 116.615 79.246 116.555C79.0656 116.525 78.9153 116.435 78.9153 116.195C78.9153 116.165 78.9153 116.134 78.9153 116.104L79.0656 115.082C79.0957 114.812 79.1859 114.722 79.4264 114.722C79.4564 114.722 79.4865 114.722 79.5165 114.722C79.8472 114.752 80.3282 114.812 80.689 114.812C82.2823 114.812 83.4548 114.12 84.1463 112.377L85.1383 109.972L79.5165 94.9099C79.4564 94.7296 79.4865 94.459 79.757 94.459H81.2602C81.5308 94.459 81.7112 94.6093 81.7713 94.8197L86.2507 107.446L90.67 94.8197C90.7601 94.5792 90.8503 94.459 91.181 94.459H92.4136C92.6541 94.459 92.8044 94.5191 92.8044 94.6995C92.8044 94.8498 92.7744 94.94 92.7443 95.0302Z" fill="white"/>
<path d="M101.162 110.031C96.4123 110.031 94.3079 106.574 94.3079 102.094C94.3079 97.7051 96.773 94.2178 101.343 94.2178C106.093 94.2178 108.257 97.5548 108.257 102.094C108.287 106.514 105.762 110.031 101.162 110.031ZM101.373 95.751C97.5847 95.751 96.4123 99.088 96.4123 102.034C96.4123 105.131 97.4945 108.498 101.192 108.498C104.86 108.498 106.183 105.311 106.183 102.154C106.183 99.0279 104.98 95.751 101.373 95.751Z" fill="white"/>
<path d="M123.74 109.16C123.74 109.551 123.589 109.731 123.229 109.731H122.236C121.876 109.731 121.725 109.551 121.725 109.16L121.695 108.047C120.222 109.34 118.509 110.002 116.705 110.002C115.111 110.002 113.939 109.521 113.127 108.739C112.105 107.717 111.714 106.214 111.714 104.26V95.0602C111.714 94.6694 111.865 94.489 112.225 94.489H113.248C113.608 94.489 113.759 94.6694 113.759 95.0602V103.959C113.759 105.522 113.999 106.665 114.691 107.416C115.172 107.957 116.043 108.318 117.246 108.318C118.779 108.318 120.673 107.266 121.725 106.244V95.0302C121.725 94.6394 121.876 94.459 122.236 94.459H123.259C123.619 94.459 123.77 94.6394 123.77 95.0302V109.16H123.74Z" fill="white"/>
<path d="M134.472 94.3083C134.682 94.3383 134.743 94.4886 134.712 94.669L134.562 95.7212C134.532 95.9016 134.412 95.9918 134.231 95.9617C133.901 95.9016 133.57 95.8415 133.209 95.8415C132.067 95.8415 130.804 96.6832 129.962 97.9459V109.189C129.962 109.58 129.812 109.761 129.451 109.761H128.429C128.069 109.761 127.918 109.58 127.918 109.189V95.1199C127.918 94.7291 128.069 94.5488 128.429 94.5488H129.421C129.782 94.5488 129.932 94.7291 129.932 95.1199L129.962 96.2323C130.594 95.2703 131.917 94.2481 133.51 94.2481C133.781 94.2181 134.171 94.2481 134.472 94.3083Z" fill="white"/>
<path d="M154.614 115.173C153.532 116.075 151.908 116.676 149.804 116.676C148.421 116.676 146.617 116.165 145.385 115.564C145.054 115.413 144.994 115.233 145.114 114.993L145.445 114.181C145.535 113.94 145.806 113.82 146.046 113.97C147.279 114.542 148.541 114.993 149.834 114.993C151.367 114.993 152.57 114.722 153.412 113.82C154.253 112.948 154.704 111.475 154.704 109.281V107.747C153.622 109.04 151.638 109.762 149.954 109.762C145.385 109.762 143.491 106.184 143.491 102.095C143.491 97.8566 145.866 94.249 150.375 94.249C151.999 94.249 153.712 94.8803 154.734 96.1731L154.764 95.0607C154.764 94.6398 154.975 94.5497 155.336 94.5497H156.298C156.658 94.5497 156.779 94.73 156.779 95.1209V109.07C156.718 111.836 156.117 113.88 154.614 115.173ZM154.704 98.3677C153.983 96.9246 152.209 95.7822 150.465 95.7822C147.279 95.7822 145.565 98.3376 145.565 101.945C145.565 104.861 146.647 108.108 150.135 108.108C151.818 108.108 153.802 107.176 154.704 105.823V98.3677Z" fill="white"/>
<path d="M174.426 109.43C174.426 109.67 174.336 109.76 174.035 109.76H172.833C171.6 109.76 171.059 108.708 171.059 107.476V107.055C170.428 108.588 168.263 110.031 166.159 110.031C161.829 110.031 159.966 106.303 159.966 102.395C159.966 97.2241 162.972 94.2178 166.67 94.2178C168.203 94.2178 169.977 94.8491 171.029 96.2019L171.059 95.0295C171.059 94.6387 171.269 94.5184 171.63 94.5184H172.592C172.953 94.5184 173.073 94.6988 173.073 95.0896V106.183C173.073 107.055 173.073 107.656 173.193 107.927C173.314 108.197 173.554 108.317 173.855 108.317H174.065C174.306 108.317 174.426 108.377 174.426 108.678V109.43ZM171.029 98.4567C170.217 96.7431 168.504 95.8111 166.82 95.8111C164.084 95.8111 162.1 98.2462 162.1 102.275C162.1 106.273 164.084 108.347 166.339 108.347C168.654 108.347 170.397 106.453 171.029 104.529V98.4567Z" fill="white"/>
<path d="M183.896 94.3083C184.106 94.3383 184.197 94.4886 184.137 94.669L183.986 95.7212C183.956 95.9016 183.836 95.9918 183.656 95.9617C183.325 95.9016 182.994 95.8415 182.633 95.8415C181.491 95.8415 180.228 96.6832 179.387 97.9459V109.189C179.387 109.58 179.236 109.761 178.875 109.761H177.853C177.493 109.761 177.342 109.58 177.342 109.189V95.1199C177.342 94.7291 177.493 94.5488 177.853 94.5488H178.845C179.206 94.5488 179.356 94.7291 179.356 95.1199L179.387 96.2323C180.018 95.2703 181.341 94.2481 182.934 94.2481C183.205 94.2181 183.595 94.2481 183.896 94.3083Z" fill="white"/>
<path d="M198.747 109.731H197.815C197.364 109.731 197.213 109.611 197.213 109.16L197.183 107.837C196.071 109.16 194.207 110.002 192.283 110.002C187.714 110.002 185.85 106.244 185.85 102.155C185.85 97.3451 188.736 94.1885 192.764 94.1885C194.267 94.1885 196.131 94.88 197.093 96.1125V88.0857C197.093 87.6949 197.153 87.5446 197.514 87.5145L198.777 87.3642C199.017 87.3341 199.137 87.5445 199.137 87.8752V109.19C199.137 109.521 198.987 109.731 198.747 109.731ZM197.093 98.3673C196.402 96.9543 194.688 95.7818 192.944 95.7818C189.938 95.7818 187.954 98.1268 187.954 102.095C187.954 105.913 189.728 108.438 192.614 108.438C194.297 108.438 196.191 107.356 197.093 106.033V98.3673Z" fill="white"/>
<path d="M214.711 102.183H204.64C204.64 105.52 206.323 108.316 209.961 108.316C211.314 108.316 212.967 107.985 213.929 107.595C214.17 107.474 214.41 107.504 214.47 107.805L214.621 108.527C214.681 108.797 214.651 109.008 214.35 109.128C213.087 109.729 211.103 110 209.78 110C204.94 110 202.535 106.753 202.535 102.063C202.535 97.6738 205.241 94.1865 209.66 94.1865C213.418 94.1865 215.552 97.0125 215.552 100.71V101.311C215.613 102.033 215.492 102.183 214.711 102.183ZM209.63 95.7498C206.654 95.7498 205 98.1549 204.7 100.77H213.508C213.538 100.56 213.538 100.349 213.538 100.139C213.568 97.734 212.306 95.7498 209.63 95.7498Z" fill="white"/>
<path d="M231.185 109.159C231.185 109.55 231.035 109.73 230.674 109.73H229.652C229.291 109.73 229.141 109.55 229.141 109.159V100.17C229.141 97.645 228.539 95.7811 225.623 95.7811C224.03 95.7811 222.076 96.6829 220.873 97.7953V109.159C220.873 109.55 220.723 109.73 220.362 109.73H219.34C218.979 109.73 218.829 109.55 218.829 109.159V95.0896C218.829 94.6988 218.979 94.5184 219.34 94.5184H220.332C220.693 94.5184 220.843 94.6988 220.843 95.0896L220.873 96.1719C222.346 94.8792 224.361 94.2178 226.164 94.2178C229.862 94.2178 231.185 96.4725 231.185 99.8997V109.159Z" fill="white"/>
<path d="M250.005 108.288L250.155 109.07C250.215 109.31 250.155 109.431 249.824 109.551C249.223 109.761 248.171 110.032 247.209 110.032C245.976 110.032 244.653 109.671 243.932 108.95C243.03 108.048 242.97 106.755 242.97 105.011V96.0225H241.106C240.835 96.0225 240.745 95.9623 240.745 95.7218V94.8801C240.745 94.6095 240.805 94.5794 241.016 94.5794H242.94V90.8817C242.94 90.4908 243 90.3706 243.361 90.3105L244.473 90.1602H244.593C244.834 90.1602 244.984 90.3405 244.984 90.6712V94.5794H248.922C249.163 94.5794 249.283 94.6396 249.283 94.9402V95.7519C249.283 95.9924 249.193 96.0525 248.892 96.0525H245.074V105.372C245.074 106.484 245.164 107.356 245.706 107.897C246.096 108.288 246.698 108.499 247.569 108.499C248.291 108.499 249.103 108.318 249.524 108.138C249.794 108.018 249.974 108.078 250.005 108.288Z" fill="white"/>
<path d="M258.813 110.031C254.063 110.031 251.958 106.574 251.958 102.094C251.958 97.7051 254.424 94.2178 258.993 94.2178C263.743 94.2178 265.908 97.5548 265.908 102.094C265.908 106.514 263.413 110.031 258.813 110.031ZM258.993 95.751C255.205 95.751 254.033 99.088 254.033 102.034C254.033 105.131 255.115 108.498 258.813 108.498C262.481 108.498 263.803 105.311 263.803 102.154C263.833 99.0279 262.601 95.751 258.993 95.751Z" fill="white"/>
<path d="M278.354 109.16C278.354 109.551 278.204 109.731 277.843 109.731H276.821C276.46 109.731 276.31 109.551 276.31 109.16V88.0858C276.31 87.6949 276.37 87.5747 276.731 87.5146C277.873 87.3643 277.933 87.3643 277.963 87.3643C278.204 87.3643 278.354 87.5446 278.354 87.8753V109.16Z" fill="white"/>
<path d="M283.976 92.2347C283.255 92.2347 282.683 91.7236 282.683 91.0021C282.683 90.2806 283.255 89.7695 283.976 89.7695C284.698 89.7695 285.299 90.2806 285.299 91.0021C285.299 91.7236 284.698 92.2347 283.976 92.2347ZM284.968 109.16C284.968 109.551 284.818 109.731 284.457 109.731H283.435C283.074 109.731 282.924 109.551 282.924 109.16V95.0907C282.924 94.6999 283.074 94.5195 283.435 94.5195H284.457C284.818 94.5195 284.968 94.6999 284.968 95.0907V109.16Z" fill="white"/>
<path d="M297.805 87.574C298.165 87.7243 298.195 87.8145 298.135 88.0851L297.925 88.9268C297.835 89.1673 297.684 89.1373 297.444 89.0471C296.963 88.8667 296.121 88.6563 295.37 88.6563C293.055 88.6563 292.363 90.0993 292.363 92.9854V94.4885H296.482C296.752 94.4885 296.873 94.5486 296.873 94.7891V95.6008C296.873 95.8714 296.782 95.9616 296.512 95.9616H292.363V109.129C292.363 109.52 292.213 109.7 291.852 109.7H290.83C290.469 109.7 290.319 109.52 290.319 109.129V95.9616H288.395C288.184 95.9616 288.094 95.9315 288.094 95.661V94.8192C288.094 94.5787 288.154 94.5186 288.455 94.5186H290.319V94.0977C290.319 92.8651 290.349 92.1135 290.409 91.6025C290.68 88.8066 292.393 87.123 295.189 87.123C296.091 87.123 297.083 87.3335 297.805 87.574Z" fill="white"/>
<path d="M309.83 102.183H299.759C299.759 105.52 301.442 108.316 305.08 108.316C306.433 108.316 308.086 107.985 309.048 107.595C309.289 107.474 309.529 107.504 309.589 107.805L309.74 108.527C309.8 108.797 309.77 109.008 309.469 109.128C308.206 109.729 306.222 110 304.9 110C300.059 110 297.654 106.753 297.654 102.063C297.654 97.6738 300.36 94.1865 304.779 94.1865C308.537 94.1865 310.672 97.0125 310.672 100.71V101.311C310.702 102.033 310.611 102.183 309.83 102.183ZM304.749 95.7498C301.773 95.7498 300.119 98.1549 299.819 100.77H308.627C308.657 100.56 308.657 100.349 308.657 100.139C308.687 97.734 307.395 95.7498 304.749 95.7498Z" fill="white"/>
</g>
<defs>
<clipPath id="clip0_1066_5950">
<rect width="330.333" height="125.754" fill="white"/>
</clipPath>
</defs>
</svg>
