<svg width="144" height="55" viewBox="0 0 144 55" fill="none" xmlns="http://www.w3.org/2000/svg">
<g clip-path="url(#clip0_1066_7153)">
<mask id="mask0_1066_7153" style="mask-type:luminance" maskUnits="userSpaceOnUse" x="1" y="2" width="149" height="35">
<path d="M149.001 2.2666H1.66327V36.6916H149.001V2.2666Z" fill="white"/>
</mask>
<g mask="url(#mask0_1066_7153)">
<path d="M7.79142 16.5774H10.371C12.2959 16.5774 13.291 17.3631 13.291 18.8951C13.291 20.6367 11.903 21.239 10.4889 21.239H7.79142V16.5774ZM2.68463 12.8193V33.3251H7.79142V24.9971H9.25798C12.0209 24.9971 12.8327 28.9385 15.0326 33.3251H20.65C17.7693 27.3148 17.1277 24.7876 15.0326 23.74C17.3765 22.6532 18.555 20.9771 18.555 18.7249C18.555 15.6608 16.0539 12.8324 11.8507 12.8324H2.68463V12.8193Z" fill="#ED1C2E"/>
</g>
<mask id="mask1_1066_7153" style="mask-type:luminance" maskUnits="userSpaceOnUse" x="1" y="2" width="149" height="35">
<path d="M149.001 2.2666H1.66327V36.6916H149.001V2.2666Z" fill="white"/>
</mask>
<g mask="url(#mask1_1066_7153)">
<path d="M26.5162 12.8193H21.4094V33.3251H26.5162V12.8193Z" fill="#ED1C2E"/>
</g>
<mask id="mask2_1066_7153" style="mask-type:luminance" maskUnits="userSpaceOnUse" x="1" y="2" width="149" height="35">
<path d="M149.001 2.2666H1.66327V36.6916H149.001V2.2666Z" fill="white"/>
</mask>
<g mask="url(#mask2_1066_7153)">
<path d="M48.0172 31.5448C45.1626 33.0114 43.002 33.5875 39.9641 33.5875C32.0028 33.5875 28.0352 28.4152 28.0352 23.1251C28.0352 17.6517 32.5135 12.5449 40.357 12.5449C43.2115 12.5449 45.7649 13.1473 47.7815 14.3519V18.9219C45.5292 17.6648 43.2377 16.8137 40.7236 16.8137C36.3632 16.8137 33.2991 19.3933 33.2991 23.0335C33.2991 26.6999 36.337 29.3188 40.6058 29.3188C43.277 29.3188 45.084 28.4807 48.0303 27.0665V31.5448H48.0172Z" fill="#ED1C2E"/>
</g>
<mask id="mask3_1066_7153" style="mask-type:luminance" maskUnits="userSpaceOnUse" x="1" y="2" width="149" height="35">
<path d="M149.001 2.2666H1.66327V36.6916H149.001V2.2666Z" fill="white"/>
</mask>
<g mask="url(#mask3_1066_7153)">
<path d="M70.1988 33.3251H65.0921V25.0233H54.8654V33.3251H49.7586V12.8193H54.8654V21.0557H65.0921V12.8193H70.1988V33.3251Z" fill="#ED1C2E"/>
</g>
<mask id="mask4_1066_7153" style="mask-type:luminance" maskUnits="userSpaceOnUse" x="1" y="2" width="149" height="35">
<path d="M149.001 2.2666H1.66327V36.6916H149.001V2.2666Z" fill="white"/>
</mask>
<g mask="url(#mask4_1066_7153)">
<path d="M92.5379 18.7118C89.9191 17.4547 87.3919 16.8131 84.8777 16.8131C79.3127 16.8131 77.3616 20.2438 77.3616 23.2817C77.3616 26.9219 80.2162 29.3182 84.4587 29.3182C85.7158 29.3182 86.3574 29.2003 87.8502 28.598V26.1886H84.8777V22.4306H92.97V30.8109C91.438 32.4084 87.6537 33.5738 84.3409 33.5738C77.1914 33.5738 72.1108 29.2134 72.1108 23.0853C72.1108 16.8393 77.1652 12.5312 84.4587 12.5312C87.5228 12.5312 90.4952 13.2252 92.551 14.2204V18.7118H92.5379Z" fill="#ED1C2E"/>
</g>
<mask id="mask5_1066_7153" style="mask-type:luminance" maskUnits="userSpaceOnUse" x="1" y="2" width="149" height="35">
<path d="M149.001 2.2666H1.66327V36.6916H149.001V2.2666Z" fill="white"/>
</mask>
<g mask="url(#mask5_1066_7153)">
<path d="M100.172 16.5774H102.751C104.676 16.5774 105.671 17.3631 105.671 18.8951C105.671 20.6367 104.283 21.239 102.882 21.239H100.172V16.5774ZM95.0649 12.8193V33.3251H100.172V24.9971H101.638C104.401 24.9971 105.213 28.9385 107.413 33.3251H113.03C110.15 27.3148 109.508 24.7876 107.413 23.74C109.757 22.6532 110.935 20.9771 110.935 18.7249C110.935 15.6608 108.434 12.8324 104.231 12.8324H95.0649V12.8193Z" fill="#ED1C2E"/>
</g>
<mask id="mask6_1066_7153" style="mask-type:luminance" maskUnits="userSpaceOnUse" x="1" y="2" width="149" height="35">
<path d="M149.001 2.2666H1.66327V36.6916H149.001V2.2666Z" fill="white"/>
</mask>
<g mask="url(#mask6_1066_7153)">
<path d="M130.498 23.0714C130.498 26.8295 127.919 29.3174 124.03 29.3174C120.128 29.3174 117.535 26.8164 117.535 23.0714C117.535 19.3133 120.114 16.8254 124.03 16.8254C127.919 16.8123 130.498 19.3133 130.498 23.0714ZM135.762 23.0714C135.762 18.1479 131.768 12.5566 124.043 12.5566C116.317 12.5566 112.284 18.1217 112.284 23.0714C112.284 28.296 116.527 33.5861 124.043 33.5861C131.402 33.5861 135.762 28.3353 135.762 23.0714Z" fill="#ED1C2E"/>
</g>
<mask id="mask7_1066_7153" style="mask-type:luminance" maskUnits="userSpaceOnUse" x="1" y="2" width="149" height="35">
<path d="M149.001 2.2666H1.66327V36.6916H149.001V2.2666Z" fill="white"/>
</mask>
<g mask="url(#mask7_1066_7153)">
<path d="M125.666 13.5915C125.666 13.5915 126.923 12.138 128.416 11.3262L125.666 13.5915Z" fill="#0064B0"/>
</g>
<mask id="mask8_1066_7153" style="mask-type:luminance" maskUnits="userSpaceOnUse" x="1" y="2" width="149" height="35">
<path d="M149.001 2.2666H1.66327V36.6916H149.001V2.2666Z" fill="white"/>
</mask>
<g mask="url(#mask8_1066_7153)">
<path d="M125.666 13.5915C125.666 13.5915 126.923 12.138 128.416 11.3262" stroke="white" stroke-width="0.0781731"/>
</g>
<mask id="mask9_1066_7153" style="mask-type:luminance" maskUnits="userSpaceOnUse" x="1" y="2" width="149" height="35">
<path d="M149.001 2.2666H1.66327V36.6916H149.001V2.2666Z" fill="white"/>
</mask>
<g mask="url(#mask9_1066_7153)">
<path d="M125.732 13.5919C125.732 13.5919 127.801 11.1301 130.263 10.4492L125.732 13.5919Z" fill="#0064B0"/>
</g>
<mask id="mask10_1066_7153" style="mask-type:luminance" maskUnits="userSpaceOnUse" x="1" y="2" width="149" height="35">
<path d="M149.001 2.2666H1.66327V36.6916H149.001V2.2666Z" fill="white"/>
</mask>
<g mask="url(#mask10_1066_7153)">
<path d="M125.732 13.5919C125.732 13.5919 127.801 11.1301 130.263 10.4492" stroke="white" stroke-width="0.0781731"/>
</g>
<mask id="mask11_1066_7153" style="mask-type:luminance" maskUnits="userSpaceOnUse" x="1" y="2" width="149" height="35">
<path d="M149.001 2.2666H1.66327V36.6916H149.001V2.2666Z" fill="white"/>
</mask>
<g mask="url(#mask11_1066_7153)">
<path d="M125.666 13.6578C125.666 13.6578 125.693 11.3924 127.513 8.90451C127.513 8.90451 128.704 7.03202 131.69 6.08923C131.69 6.08923 133.497 5.4738 135.016 5.27738C135.016 5.27738 138.171 4.81908 139.573 4.11199C139.573 4.11199 141.183 3.35252 141.589 2.77637C141.589 2.77637 140.371 5.53927 138.106 7.24153C138.106 7.24153 136.744 9.10093 134.099 10.0175C134.099 10.0175 129.464 12.584 128.469 12.7412C127.473 12.9114 128.39 12.7412 128.39 12.7412C128.39 12.7412 127.225 13.8149 125.666 13.6578Z" fill="#0064B0"/>
</g>
<mask id="mask12_1066_7153" style="mask-type:luminance" maskUnits="userSpaceOnUse" x="1" y="2" width="149" height="35">
<path d="M149.001 2.2666H1.66327V36.6916H149.001V2.2666Z" fill="white"/>
</mask>
<g mask="url(#mask12_1066_7153)">
<path d="M125.666 13.6578C125.666 13.6578 125.693 11.3924 127.513 8.90451C127.513 8.90451 128.704 7.03202 131.69 6.08923C131.69 6.08923 133.497 5.4738 135.016 5.27738C135.016 5.27738 138.171 4.81908 139.573 4.11199C139.573 4.11199 141.183 3.35252 141.589 2.77637C141.589 2.77637 140.371 5.53927 138.106 7.24153C138.106 7.24153 136.744 9.10093 134.099 10.0175C134.099 10.0175 129.464 12.584 128.469 12.7412C127.473 12.9114 128.39 12.7412 128.39 12.7412C128.39 12.7412 127.225 13.8149 125.666 13.6578Z" stroke="white" stroke-width="0.104231"/>
</g>
<mask id="mask13_1066_7153" style="mask-type:luminance" maskUnits="userSpaceOnUse" x="1" y="2" width="149" height="35">
<path d="M149.001 2.2666H1.66327V36.6916H149.001V2.2666Z" fill="white"/>
</mask>
<g mask="url(#mask13_1066_7153)">
<path d="M115.348 6.74345C115.348 6.74345 116.422 7.86956 118.425 11.0122C118.425 11.0122 121.843 16.5642 123.427 18.6724C123.427 18.6724 124.278 16.7999 125.117 15.7916C125.117 15.7916 125.824 14.6917 127.041 14.6C127.041 14.6 129.608 14.3905 130.865 14.2072C130.865 14.2072 134.322 13.8537 136.338 11.9812C136.338 11.9812 138.866 9.91227 139.52 5.99707C139.52 5.99707 137.936 7.7648 135.946 8.55046C135.946 8.55046 133.877 9.36231 132.253 9.8468C132.253 9.8468 130.053 10.4884 128.731 11.1693C128.731 11.1693 126.518 12.1252 124.75 14.731C124.75 14.731 123.807 16.0142 123.336 16.9308C123.336 16.9308 122.694 15.9095 121.647 14.1417C121.647 14.1417 120.507 12.2693 119.669 10.7765C119.669 10.7765 118.569 8.82544 119.198 8.18382C119.185 8.18382 116.841 6.99224 115.348 6.74345Z" fill="#009D57"/>
</g>
<mask id="mask14_1066_7153" style="mask-type:luminance" maskUnits="userSpaceOnUse" x="1" y="2" width="149" height="35">
<path d="M149.001 2.2666H1.66327V36.6916H149.001V2.2666Z" fill="white"/>
</mask>
<g mask="url(#mask14_1066_7153)">
<path d="M115.348 6.74345C115.348 6.74345 116.422 7.86956 118.425 11.0122C118.425 11.0122 121.843 16.5642 123.427 18.6724C123.427 18.6724 124.278 16.7999 125.117 15.7916C125.117 15.7916 125.824 14.6917 127.041 14.6C127.041 14.6 129.608 14.3905 130.865 14.2072C130.865 14.2072 134.322 13.8537 136.338 11.9812C136.338 11.9812 138.866 9.91227 139.52 5.99707C139.52 5.99707 137.936 7.7648 135.946 8.55046C135.946 8.55046 133.877 9.36231 132.253 9.8468C132.253 9.8468 130.053 10.4884 128.731 11.1693C128.731 11.1693 126.518 12.1252 124.75 14.731C124.75 14.731 123.807 16.0142 123.336 16.9308C123.336 16.9308 122.694 15.9095 121.647 14.1417C121.647 14.1417 120.507 12.2693 119.669 10.7765C119.669 10.7765 118.569 8.82545 119.198 8.18382C119.185 8.18382 116.841 6.99224 115.348 6.74345Z" stroke="white" stroke-width="0.104231"/>
</g>
<path d="M5.38167 47.7949H3.2342C3.03779 47.7949 2.98541 47.7687 2.98541 47.5592V38.6027C2.98541 38.3932 3.05088 38.3408 3.29968 38.3408H5.04122C6.79586 38.3408 8.13148 38.9301 8.13148 40.6323C8.13148 41.6537 7.52914 42.531 6.40303 42.7536V42.7667C7.76484 42.7929 8.85167 43.6702 8.85167 45.0975C8.86476 47.2188 7.29345 47.7949 5.38167 47.7949ZM4.91028 39.1003H3.95439V42.4786H5.01503C5.97092 42.4786 7.1756 42.2429 7.1756 40.6585C7.1756 39.336 6.10186 39.1003 4.91028 39.1003ZM5.26383 43.225H3.95439V47.0616H5.26383C6.76967 47.0616 7.8565 46.6426 7.8565 45.1368C7.8696 43.644 6.67801 43.225 5.26383 43.225Z" fill="#6E7C7C"/>
<path d="M13.2644 41.0772C13.3561 41.0903 13.3823 41.1558 13.3692 41.2344L13.3037 41.6927C13.2906 41.7712 13.2382 41.8105 13.1597 41.7974C13.0156 41.7712 12.8716 41.745 12.7145 41.745C12.2169 41.745 11.6669 42.1117 11.3003 42.6616V47.5589C11.3003 47.7291 11.2348 47.8077 11.0777 47.8077H10.6325C10.4753 47.8077 10.4099 47.7291 10.4099 47.5589V41.4308C10.4099 41.2605 10.4753 41.182 10.6325 41.182H11.0646C11.2217 41.182 11.2872 41.2605 11.2872 41.4308L11.3003 41.9153C11.5752 41.4962 12.1514 41.051 12.8454 41.051C12.9632 41.0379 13.1335 41.051 13.2644 41.0772Z" fill="#6E7C7C"/>
<path d="M15.0584 40.1743C14.7442 40.1743 14.4954 39.9517 14.4954 39.6375C14.4954 39.3232 14.7442 39.1006 15.0584 39.1006C15.3727 39.1006 15.6346 39.3232 15.6346 39.6375C15.6346 39.9517 15.3858 40.1743 15.0584 40.1743ZM15.5036 47.5464C15.5036 47.7167 15.4382 47.7952 15.281 47.7952H14.8358C14.6787 47.7952 14.6132 47.7167 14.6132 47.5464V41.4183C14.6132 41.2481 14.6787 41.1695 14.8358 41.1695H15.281C15.4382 41.1695 15.5036 41.2481 15.5036 41.4183V47.5464Z" fill="#6E7C7C"/>
<path d="M22.9019 47.546C22.9019 47.7162 22.8364 47.7948 22.6793 47.7948H22.2341C22.077 47.7948 22.0115 47.7162 22.0115 47.546V43.6308C22.0115 42.5308 21.7496 41.719 20.4795 41.719C19.7855 41.719 18.9343 42.1118 18.4106 42.5963V47.546C18.4106 47.7162 18.3451 47.7948 18.188 47.7948H17.7427C17.5856 47.7948 17.5201 47.7162 17.5201 47.546V41.4178C17.5201 41.2476 17.5856 41.169 17.7427 41.169H18.1749C18.332 41.169 18.3975 41.2476 18.3975 41.4178L18.4106 41.8892C19.0522 41.3262 19.9295 41.0381 20.7152 41.0381C22.3258 41.0381 22.9019 42.0202 22.9019 43.5129V47.546Z" fill="#6E7C7C"/>
<path d="M29.2657 50.1644C28.7943 50.5573 28.0872 50.8191 27.1706 50.8191C26.5683 50.8191 25.7826 50.5965 25.2458 50.3347C25.1017 50.2692 25.0756 50.1906 25.1279 50.0859L25.272 49.7323C25.3113 49.6276 25.4291 49.5752 25.5339 49.6407C26.0707 49.8895 26.6207 50.0859 27.1837 50.0859C27.8516 50.0859 28.3753 49.968 28.742 49.5752C29.1086 49.1955 29.305 48.5538 29.305 47.5979V46.9301C28.8336 47.4932 27.9694 47.8075 27.2361 47.8075C25.2458 47.8075 24.4208 46.2492 24.4208 44.4684C24.4208 42.6221 25.4553 41.0508 27.4194 41.0508C28.1265 41.0508 28.8729 41.3258 29.3181 41.8888L29.3312 41.4043C29.3312 41.221 29.4229 41.1817 29.58 41.1817H29.999C30.1562 41.1817 30.2085 41.2603 30.2085 41.4305V47.5063C30.1823 48.711 29.9205 49.6014 29.2657 50.1644ZM29.2919 42.8447C28.9777 42.2162 28.2051 41.7186 27.4456 41.7186C26.0576 41.7186 25.3113 42.8316 25.3113 44.4029C25.3113 45.6731 25.7826 47.0873 27.3016 47.0873C28.0349 47.0873 28.8991 46.6813 29.2919 46.0921V42.8447Z" fill="#6E7C7C"/>
<path d="M40.3959 41.3923L37.6985 48.6204C37.0961 50.231 36.4545 50.8203 35.0665 50.8203C34.8963 50.8203 34.6999 50.7941 34.5165 50.7679C34.438 50.7548 34.3725 50.7155 34.3725 50.6108C34.3725 50.5977 34.3725 50.5846 34.3725 50.5715L34.438 50.1263C34.4511 50.0084 34.4903 49.9691 34.5951 49.9691C34.6082 49.9691 34.6213 49.9691 34.6344 49.9691C34.7784 49.9822 34.9879 50.0084 35.1451 50.0084C35.8391 50.0084 36.3497 49.7072 36.6509 48.9478L37.083 47.9002L34.6344 41.34C34.6082 41.2614 34.6213 41.1436 34.7391 41.1436H35.3939C35.5117 41.1436 35.5903 41.209 35.6165 41.3007L37.5675 46.8003L39.4924 41.3007C39.5317 41.1959 39.5709 41.1436 39.715 41.1436H40.2518C40.3566 41.1436 40.4221 41.1697 40.4221 41.2483C40.4221 41.3138 40.409 41.3531 40.3959 41.3923Z" fill="#6E7C7C"/>
<path d="M44.0623 47.9257C41.9934 47.9257 41.0768 46.4199 41.0768 44.4688C41.0768 42.557 42.1506 41.0381 44.1409 41.0381C46.2098 41.0381 47.1526 42.4916 47.1526 44.4688C47.1657 46.3937 46.0658 47.9257 44.0623 47.9257ZM44.154 41.7059C42.5041 41.7059 41.9934 43.1594 41.9934 44.4426C41.9934 45.7913 42.4648 47.2579 44.0754 47.2579C45.673 47.2579 46.2491 45.8699 46.2491 44.495C46.2491 43.1332 45.7253 41.7059 44.154 41.7059Z" fill="#6E7C7C"/>
<path d="M53.8961 47.5467C53.8961 47.7169 53.8306 47.7955 53.6735 47.7955H53.2414C53.0843 47.7955 53.0188 47.7169 53.0188 47.5467L53.0057 47.0622C52.3641 47.6252 51.6177 47.9133 50.832 47.9133C50.138 47.9133 49.6274 47.7038 49.2738 47.3634C48.8286 46.9182 48.6584 46.2634 48.6584 45.4123V41.4054C48.6584 41.2352 48.7239 41.1566 48.881 41.1566H49.3262C49.4833 41.1566 49.5488 41.2352 49.5488 41.4054V45.2814C49.5488 45.9623 49.6536 46.4598 49.9547 46.7872C50.1642 47.0229 50.544 47.18 51.0677 47.18C51.7356 47.18 52.5605 46.7217 53.0188 46.2765V41.3923C53.0188 41.2221 53.0843 41.1436 53.2414 41.1436H53.6866C53.8437 41.1436 53.9092 41.2221 53.9092 41.3923V47.5467H53.8961Z" fill="#6E7C7C"/>
<path d="M58.5707 41.0772C58.6624 41.0903 58.6886 41.1558 58.6755 41.2344L58.61 41.6927C58.5969 41.7712 58.5446 41.8105 58.466 41.7974C58.322 41.7712 58.1779 41.745 58.0208 41.745C57.5232 41.745 56.9732 42.1117 56.6066 42.6616V47.5589C56.6066 47.7291 56.5411 47.8077 56.384 47.8077H55.9388C55.7817 47.8077 55.7162 47.7291 55.7162 47.5589V41.4308C55.7162 41.2605 55.7817 41.182 55.9388 41.182H56.3709C56.528 41.182 56.5935 41.2605 56.5935 41.4308L56.6066 41.9153C56.8816 41.4962 57.4577 41.051 58.1517 41.051C58.2696 41.0379 58.4398 41.051 58.5707 41.0772Z" fill="#6E7C7C"/>
<path d="M67.344 50.1644C66.8726 50.5573 66.1655 50.8191 65.2489 50.8191C64.6466 50.8191 63.8609 50.5965 63.324 50.3347C63.18 50.2692 63.1538 50.1906 63.2062 50.0859L63.3502 49.7323C63.3895 49.6276 63.5073 49.5752 63.6121 49.6407C64.149 49.8895 64.6989 50.0859 65.262 50.0859C65.9298 50.0859 66.4536 49.968 66.8202 49.5752C67.1869 49.1955 67.3833 48.5538 67.3833 47.5979V46.9301C66.9119 47.4932 66.0476 47.8075 65.3144 47.8075C63.324 47.8075 62.4991 46.2492 62.4991 44.4684C62.4991 42.6221 63.5335 41.0508 65.4977 41.0508C66.2048 41.0508 66.9512 41.3258 67.3964 41.8888L67.4095 41.4043C67.4095 41.221 67.5011 41.1817 67.6583 41.1817H68.0773C68.2344 41.1817 68.2868 41.2603 68.2868 41.4305V47.5063C68.2606 48.711 67.9987 49.6014 67.344 50.1644ZM67.3833 42.8447C67.069 42.2162 66.2964 41.7186 65.537 41.7186C64.149 41.7186 63.4026 42.8316 63.4026 44.4029C63.4026 45.6731 63.874 47.0873 65.3929 47.0873C66.1262 47.0873 66.9904 46.6813 67.3833 46.0921V42.8447Z" fill="#6E7C7C"/>
<path d="M75.9732 47.6638C75.9732 47.7686 75.9339 47.8079 75.803 47.8079H75.2792C74.7423 47.8079 74.5066 47.3496 74.5066 46.8127V46.6294C74.2316 47.2972 73.2888 47.9257 72.3722 47.9257C70.4867 47.9257 69.6748 46.302 69.6748 44.5997C69.6748 42.3475 70.9842 41.0381 72.5948 41.0381C73.2627 41.0381 74.0352 41.3131 74.4935 41.9023L74.5066 41.3916C74.5066 41.2214 74.5983 41.169 74.7554 41.169H75.1744C75.3316 41.169 75.3839 41.2476 75.3839 41.4178V46.2496C75.3839 46.6294 75.3839 46.8913 75.4363 47.0091C75.4887 47.1269 75.5934 47.1793 75.7244 47.1793H75.816C75.9208 47.1793 75.9732 47.2055 75.9732 47.3365V47.6638ZM74.4935 42.8844C74.14 42.138 73.3936 41.7321 72.6603 41.7321C71.4687 41.7321 70.6045 42.7927 70.6045 44.5474C70.6045 46.2889 71.4687 47.1924 72.4508 47.1924C73.4591 47.1924 74.2185 46.3675 74.4935 45.5294V42.8844Z" fill="#6E7C7C"/>
<path d="M80.098 41.0772C80.1896 41.0903 80.2289 41.1558 80.2027 41.2344L80.1373 41.6927C80.1242 41.7712 80.0718 41.8105 79.9932 41.7974C79.8492 41.7712 79.7051 41.745 79.548 41.745C79.0504 41.745 78.5005 42.1117 78.1338 42.6616V47.5589C78.1338 47.7291 78.0683 47.8077 77.9112 47.8077H77.466C77.3089 47.8077 77.2434 47.7291 77.2434 47.5589V41.4308C77.2434 41.2605 77.3089 41.182 77.466 41.182H77.8981C78.0553 41.182 78.1207 41.2605 78.1207 41.4308L78.1338 41.9153C78.4088 41.4962 78.985 41.051 79.6789 41.051C79.7968 41.0379 79.967 41.051 80.098 41.0772Z" fill="#6E7C7C"/>
<path d="M86.5664 47.7942H86.1605C85.9641 47.7942 85.8986 47.7418 85.8986 47.5454L85.8855 46.9693C85.401 47.5454 84.5892 47.912 83.7512 47.912C81.7608 47.912 80.949 46.2753 80.949 44.4944C80.949 42.3993 82.206 41.0244 83.9607 41.0244C84.6154 41.0244 85.4272 41.3256 85.8462 41.8625V38.3663C85.8462 38.1961 85.8724 38.1306 86.0296 38.1175L86.5795 38.052C86.6843 38.0389 86.7367 38.1306 86.7367 38.2746V47.5585C86.7367 47.7025 86.6712 47.7942 86.5664 47.7942ZM85.8462 42.8445C85.5451 42.2291 84.7987 41.7184 84.0392 41.7184C82.7298 41.7184 81.8656 42.7398 81.8656 44.4682C81.8656 46.1312 82.6381 47.2311 83.8952 47.2311C84.6285 47.2311 85.4534 46.7598 85.8462 46.1836V42.8445Z" fill="#6E7C7C"/>
<path d="M93.5196 44.5075H89.133C89.133 45.961 89.8663 47.1787 91.4507 47.1787C92.04 47.1787 92.7602 47.0347 93.1792 46.8645C93.2839 46.8121 93.3887 46.8252 93.4149 46.9561L93.4804 47.2704C93.5065 47.3883 93.4934 47.4799 93.3625 47.5323C92.8125 47.7942 91.9483 47.912 91.3722 47.912C89.264 47.912 88.2164 46.4978 88.2164 44.4551C88.2164 42.5434 89.3949 41.0244 91.3198 41.0244C92.9566 41.0244 93.8863 42.2553 93.8863 43.8659V44.1278C93.9125 44.442 93.8601 44.5075 93.5196 44.5075ZM91.3067 41.7053C90.0104 41.7053 89.2902 42.7529 89.1592 43.8921H92.9959C93.009 43.8004 93.009 43.7088 93.009 43.6171C93.022 42.5695 92.4721 41.7053 91.3067 41.7053Z" fill="#6E7C7C"/>
<path d="M100.695 47.546C100.695 47.7162 100.63 47.7948 100.473 47.7948H100.027C99.8703 47.7948 99.8048 47.7162 99.8048 47.546V43.6308C99.8048 42.5308 99.5429 41.719 98.2728 41.719C97.5788 41.719 96.7277 42.1118 96.2039 42.5963V47.546C96.2039 47.7162 96.1384 47.7948 95.9813 47.7948H95.5361C95.3789 47.7948 95.3135 47.7162 95.3135 47.546V41.4178C95.3135 41.2476 95.3789 41.169 95.5361 41.169H95.9682C96.1253 41.169 96.1908 41.2476 96.1908 41.4178L96.2039 41.8892C96.8455 41.3262 97.7228 41.0381 98.5085 41.0381C100.119 41.0381 100.695 42.0202 100.695 43.5129V47.546Z" fill="#6E7C7C"/>
<path d="M108.892 47.1654L108.958 47.5059C108.984 47.6106 108.958 47.663 108.814 47.7154C108.552 47.807 108.094 47.9249 107.675 47.9249C107.138 47.9249 106.562 47.7678 106.247 47.4535C105.854 47.0607 105.828 46.4976 105.828 45.7381V41.8229H105.016C104.899 41.8229 104.859 41.7967 104.859 41.692V41.3253C104.859 41.2075 104.886 41.1944 104.977 41.1944H105.815V39.5838C105.815 39.4136 105.841 39.3612 105.999 39.335L106.483 39.2695H106.535C106.64 39.2695 106.706 39.3481 106.706 39.4921V41.1944H108.421C108.526 41.1944 108.578 41.2206 108.578 41.3515V41.7051C108.578 41.8098 108.539 41.836 108.408 41.836H106.745V45.8953C106.745 46.3798 106.784 46.7595 107.02 46.9952C107.19 47.1654 107.452 47.2571 107.832 47.2571C108.146 47.2571 108.5 47.1785 108.683 47.0999C108.801 47.0476 108.879 47.0738 108.892 47.1654Z" fill="#6E7C7C"/>
<path d="M112.729 47.9257C110.66 47.9257 109.743 46.4199 109.743 44.4688C109.743 42.557 110.817 41.0381 112.807 41.0381C114.876 41.0381 115.819 42.4916 115.819 44.4688C115.819 46.3937 114.732 47.9257 112.729 47.9257ZM112.807 41.7059C111.158 41.7059 110.647 43.1594 110.647 44.4426C110.647 45.7913 111.118 47.2579 112.729 47.2579C114.326 47.2579 114.903 45.8699 114.903 44.495C114.916 43.1332 114.379 41.7059 112.807 41.7059Z" fill="#6E7C7C"/>
<path d="M121.24 47.5461C121.24 47.7163 121.175 47.7949 121.018 47.7949H120.572C120.415 47.7949 120.35 47.7163 120.35 47.5461V38.367C120.35 38.1968 120.376 38.1444 120.533 38.1182C121.031 38.0527 121.057 38.0527 121.07 38.0527C121.175 38.0527 121.24 38.1313 121.24 38.2753V47.5461Z" fill="#6E7C7C"/>
<path d="M123.689 40.1743C123.375 40.1743 123.126 39.9517 123.126 39.6375C123.126 39.3232 123.375 39.1006 123.689 39.1006C124.003 39.1006 124.265 39.3232 124.265 39.6375C124.265 39.9517 124.003 40.1743 123.689 40.1743ZM124.121 47.5464C124.121 47.7167 124.056 47.7952 123.899 47.7952H123.453C123.296 47.7952 123.231 47.7167 123.231 47.5464V41.4183C123.231 41.2481 123.296 41.1695 123.453 41.1695H123.899C124.056 41.1695 124.121 41.2481 124.121 41.4183V47.5464Z" fill="#6E7C7C"/>
<path d="M129.712 38.1437C129.869 38.2092 129.882 38.2484 129.856 38.3663L129.765 38.7329C129.725 38.8377 129.66 38.8246 129.555 38.7853C129.346 38.7067 128.979 38.6151 128.652 38.6151C127.643 38.6151 127.342 39.2436 127.342 40.5007V41.1554H129.136C129.254 41.1554 129.306 41.1816 129.306 41.2863V41.6399C129.306 41.7577 129.267 41.797 129.149 41.797H127.342V47.5323C127.342 47.7025 127.277 47.7811 127.12 47.7811H126.674C126.517 47.7811 126.452 47.7025 126.452 47.5323V41.797H125.614C125.522 41.797 125.483 41.7839 125.483 41.6661V41.2994C125.483 41.1947 125.509 41.1685 125.64 41.1685H126.452V40.9852C126.452 40.4483 126.465 40.1209 126.491 39.8983C126.609 38.6806 127.355 37.9473 128.573 37.9473C128.966 37.9473 129.398 38.0389 129.712 38.1437Z" fill="#6E7C7C"/>
<path d="M134.95 44.5075H130.563C130.563 45.961 131.297 47.1787 132.881 47.1787C133.47 47.1787 134.191 47.0347 134.61 46.8645C134.714 46.8121 134.819 46.8252 134.845 46.9561L134.911 47.2704C134.937 47.3883 134.924 47.4799 134.793 47.5323C134.243 47.7942 133.379 47.912 132.803 47.912C130.694 47.912 129.647 46.4978 129.647 44.4551C129.647 42.5434 130.825 41.0244 132.75 41.0244C134.387 41.0244 135.317 42.2553 135.317 43.8659V44.1278C135.33 44.442 135.29 44.5075 134.95 44.5075ZM132.737 41.7053C131.441 41.7053 130.721 42.7529 130.59 43.8921H134.426C134.439 43.8004 134.439 43.7088 134.439 43.6171C134.452 42.5695 133.889 41.7053 132.737 41.7053Z" fill="#6E7C7C"/>
</g>
<defs>
<clipPath id="clip0_1066_7153">
<rect width="143.88" height="54.7736" fill="white"/>
</clipPath>
</defs>
</svg>
