<svg width="18" height="18" viewBox="0 0 18 18" fill="none" xmlns="http://www.w3.org/2000/svg">
<path fill-rule="evenodd" clip-rule="evenodd" d="M7.5 0.703594C7.70712 0.703594 7.875 0.871477 7.875 1.07859V8.20359C7.875 8.41069 7.70712 8.57859 7.5 8.57859H0.375C0.167883 8.57859 0 8.41069 0 8.20359V1.07859C0 0.871477 0.167883 0.703594 0.375 0.703594H7.5ZM6.28125 2.29734H1.59375V6.98484H6.28125V2.29734ZM17.8437 4.35248C17.9902 4.49892 17.9902 4.73637 17.8437 4.8828L13.6011 9.12546C13.4546 9.2719 13.2172 9.2719 13.0708 9.12546L8.82813 4.8828C8.68169 4.73637 8.68169 4.49892 8.82813 4.35248L13.0708 0.109828C13.2172 -0.0366094 13.4546 -0.0366094 13.6011 0.109828L17.8437 4.35248ZM15.855 4.61763L13.3359 2.09859L10.8169 4.61766L13.3359 7.13672L15.855 4.61763ZM7.5 10.0786C7.70712 10.0786 7.875 10.2465 7.875 10.4536V17.5786C7.875 17.7857 7.70712 17.9536 7.5 17.9536H0.375C0.167883 17.9536 0 17.7857 0 17.5786V10.4536C0 10.2465 0.167883 10.0786 0.375 10.0786H7.5ZM6.28125 11.6723H1.59375V16.3598H6.28125V11.6723ZM16.875 10.0786C17.0821 10.0786 17.25 10.2465 17.25 10.4536V17.5786C17.25 17.7857 17.0821 17.9536 16.875 17.9536H9.75C9.54288 17.9536 9.375 17.7857 9.375 17.5786V10.4536C9.375 10.2465 9.54288 10.0786 9.75 10.0786H16.875ZM15.6562 11.6723H10.9688V16.3598H15.6562V11.6723Z" fill="#005CE8"/>
</svg>
