<svg width="15" height="15" viewBox="0 0 15 15" fill="none" xmlns="http://www.w3.org/2000/svg">
<path d="M7.08334 0C10.9955 0 14.1667 3.17121 14.1667 7.08333C14.1667 10.9955 10.9955 14.1667 7.08334 14.1667C5.95283 14.1682 4.8385 13.8981 3.83421 13.379L1.12413 14.1348C0.972931 14.177 0.813231 14.1782 0.661394 14.1384C0.509557 14.0985 0.371042 14.019 0.260042 13.908C0.149042 13.797 0.0695477 13.6585 0.0297043 13.5067C-0.010139 13.3549 -0.00889888 13.1952 0.0332976 13.044L0.789798 10.336C0.269422 9.33083 -0.0014654 8.21521 5.962e-06 7.08333C5.962e-06 3.17121 3.17121 0 7.08334 0ZM7.08334 1.0625C5.48652 1.0625 3.95509 1.69684 2.82597 2.82596C1.69684 3.95509 1.06251 5.48651 1.06251 7.08333C1.06251 8.12458 1.32671 9.12546 1.82255 10.0137L1.9288 10.205L1.14113 13.027L3.96526 12.2393L4.15651 12.3455C4.96003 12.7923 5.85518 13.0491 6.77334 13.0962C7.69149 13.1434 8.60824 12.9797 9.45331 12.6176C10.2984 12.2555 11.0493 11.7048 11.6485 11.0075C12.2477 10.3102 12.6793 9.48502 12.9101 8.59511C13.141 7.7052 13.165 6.77425 12.9802 5.87363C12.7955 4.97302 12.407 4.12667 11.8445 3.39948C11.282 2.67229 10.5604 2.08358 9.73511 1.67848C8.90981 1.27339 8.0027 1.06268 7.08334 1.0625ZM7.08334 9.5625C7.2712 9.5625 7.45137 9.63713 7.58421 9.76997C7.71704 9.90281 7.79167 10.083 7.79167 10.2708C7.79167 10.4587 7.71704 10.6389 7.58421 10.7717C7.45137 10.9045 7.2712 10.9792 7.08334 10.9792C6.89548 10.9792 6.71531 10.9045 6.58247 10.7717C6.44963 10.6389 6.37501 10.4587 6.37501 10.2708C6.37501 10.083 6.44963 9.90281 6.58247 9.76997C6.71531 9.63713 6.89548 9.5625 7.08334 9.5625ZM7.08334 3.36458C7.59996 3.36458 8.09542 3.56981 8.46072 3.93512C8.82603 4.30042 9.03126 4.79588 9.03126 5.3125C9.03126 6.02792 8.82088 6.42742 8.2868 6.98346L8.16709 7.10458C7.72651 7.54517 7.61459 7.73217 7.61459 8.14583C7.61459 8.28673 7.55862 8.42185 7.45899 8.52148C7.35936 8.62111 7.22424 8.67708 7.08334 8.67708C6.94244 8.67708 6.80732 8.62111 6.70769 8.52148C6.60806 8.42185 6.55209 8.28673 6.55209 8.14583C6.55209 7.43042 6.76246 7.03092 7.29655 6.47488L7.41626 6.35375C7.85684 5.91317 7.96876 5.72617 7.96876 5.3125C7.96802 5.08603 7.88054 4.86845 7.72429 4.7045C7.56805 4.54056 7.35492 4.44272 7.12875 4.43111C6.90257 4.4195 6.68054 4.49499 6.50833 4.64207C6.33611 4.78915 6.2268 4.99663 6.20288 5.22183L6.19792 5.3125C6.19792 5.4534 6.14195 5.58852 6.04232 5.68815C5.94269 5.78778 5.80757 5.84375 5.66667 5.84375C5.52578 5.84375 5.39065 5.78778 5.29102 5.68815C5.19139 5.58852 5.13542 5.4534 5.13542 5.3125C5.13542 4.79588 5.34065 4.30042 5.70595 3.93512C6.07126 3.56981 6.56672 3.36458 7.08334 3.36458Z" fill="#005CE8"/>
</svg>
