<svg width="28" height="28" viewBox="0 0 28 28" fill="none" xmlns="http://www.w3.org/2000/svg">
<path d="M7.91117 18.4217C10.3975 18.4217 12.4317 16.3536 12.4317 13.8447C12.4317 12.5337 11.7875 11.2906 10.4992 10.2395C9.21083 9.18852 8.23891 7.62893 7.91117 5.99023C7.58343 7.62893 6.62282 9.19982 5.32316 10.2395C4.0235 11.2793 3.39062 12.545 3.39062 13.8447C3.39062 16.3536 5.42487 18.4217 7.91117 18.4217Z" stroke="white" stroke-width="2.26027" stroke-linecap="round" stroke-linejoin="round"/>
<path d="M14.1948 7.45898C14.972 6.2171 15.523 4.84728 15.8222 3.41309C16.3872 6.23843 18.0824 8.95076 20.3427 10.759C22.603 12.5672 23.7331 14.7145 23.7331 16.9747C23.7396 18.5369 23.2821 20.0658 22.4185 21.3677C21.555 22.6695 20.3244 23.6857 18.8827 24.2873C17.441 24.8889 15.8532 25.0489 14.3204 24.747C12.7877 24.4451 11.3791 23.6949 10.2732 22.5915" stroke="white" stroke-width="2.26027" stroke-linecap="round" stroke-linejoin="round"/>
</svg>
