<svg width="15" height="15" viewBox="0 0 15 15" fill="none" xmlns="http://www.w3.org/2000/svg">
<path d="M10.625 3.54167H3.54167C3.35381 3.54167 3.17364 3.61629 3.0408 3.74913C2.90796 3.88197 2.83333 4.06214 2.83333 4.25C2.83333 4.43786 2.90796 4.61803 3.0408 4.75087C3.17364 4.88371 3.35381 4.95833 3.54167 4.95833H10.625C10.8129 4.95833 10.993 4.88371 11.1259 4.75087C11.2587 4.61803 11.3333 4.43786 11.3333 4.25C11.3333 4.06214 11.2587 3.88197 11.1259 3.74913C10.993 3.61629 10.8129 3.54167 10.625 3.54167ZM10.625 6.375H3.54167C3.35381 6.375 3.17364 6.44963 3.0408 6.58247C2.90796 6.7153 2.83333 6.89547 2.83333 7.08333C2.83333 7.2712 2.90796 7.45136 3.0408 7.5842C3.17364 7.71704 3.35381 7.79167 3.54167 7.79167H10.625C10.8129 7.79167 10.993 7.71704 11.1259 7.5842C11.2587 7.45136 11.3333 7.2712 11.3333 7.08333C11.3333 6.89547 11.2587 6.7153 11.1259 6.58247C10.993 6.44963 10.8129 6.375 10.625 6.375ZM12.0417 0H2.125C1.56142 0 1.02091 0.223883 0.622398 0.622398C0.223883 1.02091 0 1.56142 0 2.125V9.20833C0 9.77192 0.223883 10.3124 0.622398 10.7109C1.02091 11.1095 1.56142 11.3333 2.125 11.3333H10.3346L12.9554 13.9613C13.0216 14.0269 13.1001 14.0788 13.1864 14.1141C13.2727 14.1493 13.3651 14.1672 13.4583 14.1667C13.5513 14.1691 13.6434 14.1497 13.7275 14.11C13.8569 14.0569 13.9676 13.9666 14.0457 13.8507C14.1239 13.7347 14.166 13.5982 14.1667 13.4583V2.125C14.1667 1.56142 13.9428 1.02091 13.5443 0.622398C13.1458 0.223883 12.6053 0 12.0417 0ZM12.75 11.7513L11.1279 10.1221C11.0617 10.0564 10.9832 10.0045 10.8969 9.96925C10.8106 9.934 10.7182 9.91613 10.625 9.91667H2.125C1.93714 9.91667 1.75697 9.84204 1.62413 9.7092C1.49129 9.57636 1.41667 9.3962 1.41667 9.20833V2.125C1.41667 1.93714 1.49129 1.75697 1.62413 1.62413C1.75697 1.49129 1.93714 1.41667 2.125 1.41667H12.0417C12.2295 1.41667 12.4097 1.49129 12.5425 1.62413C12.6754 1.75697 12.75 1.93714 12.75 2.125V11.7513Z" fill="#005CE8"/>
</svg>
