<svg width="15" height="15" viewBox="0 0 15 15" fill="none" xmlns="http://www.w3.org/2000/svg">
<path d="M13.1905 12.1834C13.6344 11.5883 13.939 10.9012 14.0819 10.1727C14.2247 9.44421 14.2022 8.69293 14.0159 7.9743C13.8296 7.25568 13.4844 6.58805 13.0056 6.0207C12.5268 5.45334 11.9267 5.00074 11.2496 4.69629C11.1022 3.84778 10.7632 3.04405 10.2585 2.34617C9.75389 1.64828 9.0968 1.07461 8.3372 0.668733C7.57761 0.262859 6.73549 0.0354635 5.87484 0.00382532C5.01419 -0.0278128 4.15764 0.137138 3.3703 0.486146C2.58295 0.835153 1.88551 1.35903 1.33098 2.01798C0.776442 2.67693 0.379399 3.45361 0.170018 4.289C-0.0393626 5.12439 -0.0555732 5.99652 0.122619 6.83912C0.30081 7.68172 0.668716 8.47261 1.19838 9.15171L0.213797 10.1292C0.115511 10.2288 0.0489301 10.3553 0.0224568 10.4927C-0.00401653 10.6301 0.0108037 10.7723 0.0650475 10.9013C0.118187 11.0306 0.208427 11.1414 0.324395 11.2195C0.440364 11.2977 0.576871 11.3398 0.716714 11.3405H4.74713C5.1485 12.1866 5.78132 12.9018 6.57233 13.4033C7.36333 13.9047 8.28017 14.1718 9.21671 14.1738H13.4667C13.6066 14.1731 13.7431 14.131 13.859 14.0529C13.975 13.9747 14.0652 13.864 14.1184 13.7346C14.1726 13.6056 14.1874 13.4635 14.161 13.3261C14.1345 13.1886 14.0679 13.0622 13.9696 12.9625L13.1905 12.1834ZM4.25838 9.21546C4.25935 9.45266 4.2783 9.68945 4.31505 9.92379H2.4238L2.67171 9.68296C2.73811 9.61711 2.7908 9.53877 2.82676 9.45245C2.86272 9.36614 2.88124 9.27355 2.88124 9.18004C2.88124 9.08654 2.86272 8.99395 2.82676 8.90764C2.7908 8.82132 2.73811 8.74298 2.67171 8.67713C2.27474 8.2845 1.96002 7.81667 1.74596 7.30099C1.5319 6.78531 1.42281 6.23213 1.42505 5.67379C1.42505 4.54662 1.87281 3.46562 2.66984 2.66859C3.46687 1.87156 4.54788 1.42379 5.67505 1.42379C6.55457 1.41851 7.41364 1.68898 8.1315 2.1972C8.84935 2.70541 9.38989 3.42581 9.67713 4.25713C9.5213 4.25713 9.37255 4.25713 9.21671 4.25713C7.90168 4.25713 6.64051 4.77952 5.71064 5.70939C4.78078 6.63926 4.25838 7.90043 4.25838 9.21546ZM11.7242 12.7571L11.7596 12.7925H9.21671C8.39741 12.7911 7.60396 12.5056 6.97152 11.9848C6.33909 11.4639 5.90679 10.7399 5.74829 9.93608C5.58978 9.13226 5.71486 8.29834 6.10223 7.57639C6.48959 6.85444 7.11528 6.28913 7.87269 5.97675C8.63011 5.66437 9.47239 5.62425 10.2561 5.86322C11.0397 6.1022 11.7163 6.60548 12.1706 7.28734C12.6248 7.9692 12.8286 8.78745 12.7472 9.60271C12.6658 10.418 12.3043 11.1798 11.7242 11.7584C11.5908 11.8892 11.5144 12.0674 11.5117 12.2542C11.5121 12.3479 11.5311 12.4406 11.5676 12.527C11.604 12.6133 11.6573 12.6915 11.7242 12.7571Z" fill="#005CE8"/>
</svg>
