<svg width="14" height="14" viewBox="0 0 14 14" fill="none" xmlns="http://www.w3.org/2000/svg">
<path d="M5.6001 0.699951C4.87143 0.699706 4.15524 0.889038 3.52189 1.24934C2.88854 1.60965 2.35982 2.12853 1.98769 2.75501C1.61556 3.38149 1.41282 4.094 1.3994 4.82254C1.38597 5.55108 1.56231 6.27059 1.9111 6.91035L1.4141 8.65335C1.39661 8.71456 1.39614 8.77937 1.41275 8.84082C1.42935 8.90227 1.4624 8.95802 1.50834 9.00209C1.55428 9.04615 1.61136 9.07686 1.67345 9.09089C1.73553 9.10493 1.80027 9.10177 1.8607 9.08175L3.4973 8.53645C4.1161 8.89485 4.8343 9.09995 5.6001 9.09995C5.83856 9.09995 6.0719 9.08058 6.3001 9.04185V8.32995C5.41374 8.50933 4.49235 8.3401 3.7276 7.85745C3.68371 7.82963 3.63418 7.81193 3.5826 7.80563C3.53102 7.79933 3.47869 7.8046 3.4294 7.82105L2.2688 8.20815L2.6258 6.96145C2.6388 6.91554 2.64228 6.86745 2.63602 6.82014C2.62976 6.77283 2.6139 6.7273 2.5894 6.68635C2.29605 6.19151 2.1292 5.632 2.10361 5.05732C2.07801 4.48264 2.19445 3.91051 2.44264 3.39155C2.69082 2.87259 3.06309 2.42281 3.52651 2.08199C3.98993 1.74117 4.53021 1.51984 5.09955 1.43756C5.66888 1.35528 6.24972 1.41461 6.79067 1.61028C7.33162 1.80595 7.816 2.13194 8.20095 2.5594C8.5859 2.98687 8.85956 3.50262 8.99771 4.06104C9.13586 4.61945 9.13424 5.20331 8.993 5.76095L9.5768 6.25515C9.79234 5.62286 9.85396 4.94827 9.75653 4.28739C9.6591 3.62651 9.40544 2.9984 9.01659 2.45521C8.62775 1.91202 8.11494 1.46942 7.52075 1.16414C6.92656 0.858872 6.26812 0.699737 5.6001 0.699951ZM7.0001 6.12215V12.4243C7.0001 12.9423 7.6721 13.1474 7.9612 12.7169L9.3458 10.6547C9.37782 10.607 9.42107 10.568 9.47173 10.541C9.52239 10.514 9.5789 10.4999 9.6363 10.5H12.0772C12.5658 10.5 12.7898 9.89025 12.416 9.57455L7.8646 5.72175C7.7882 5.65698 7.69487 5.61542 7.59562 5.60196C7.49637 5.58851 7.39534 5.60373 7.30445 5.64582C7.21357 5.68792 7.13662 5.75513 7.0827 5.83953C7.02877 5.92393 7.00011 6.02199 7.0001 6.12215Z" fill="#008000"/>
</svg>
