<svg width="15" height="13" viewBox="0 0 15 13" fill="none" xmlns="http://www.w3.org/2000/svg">
<path d="M12.0913 6.99833L7.79167 11.2908V12.75H9.25083L13.5433 8.45042M14.6625 6.78583L13.7558 5.87917C13.7217 5.84164 13.6801 5.81157 13.6338 5.79085C13.5875 5.77013 13.5374 5.7592 13.4867 5.75875C13.3804 5.76583 13.2812 5.80125 13.2104 5.87917L12.5021 6.5875L13.9542 8.00417L14.6625 7.29583C14.7971 7.15417 14.7971 6.9275 14.6625 6.78583ZM6.375 9.91667H1.41667V2.83333L7.08333 6.375L12.75 2.83333V4.25H14.1667V1.41667C14.1667 0.6375 13.5292 0 12.75 0H1.41667C0.6375 0 0 0.6375 0 1.41667V9.91667C0 10.6958 0.6375 11.3333 1.41667 11.3333H6.375V9.91667ZM12.75 1.41667L7.08333 4.95833L1.41667 1.41667H12.75Z" fill="#005CE8"/>
</svg>
